<?xml version="1.0" encoding="UTF-8"?>
<svg version="1.1" xmlns="http://www.w3.org/2000/svg" viewBox="95 345.5 762.0 212.3">
<path d="M0 0 C1.39443282 1.14266023 2.73645368 2.34895405 4.0625 3.5703125 C2.67008127 8.83589599 0.28776079 12.29578899 -3.0625 16.4453125 C-4.67125 18.4665625 -6.28 20.4878125 -7.9375 22.5703125 C2.2925 22.5703125 12.5225 22.5703125 23.0625 22.5703125 C23.3925 48.3103125 23.7225 74.0503125 24.0625 100.5703125 C27.6925 98.2603125 31.3225 95.9503125 35.0625 93.5703125 C46.05723832 89.17241717 56.77473367 90.02764795 67.56640625 94.640625 C78.07892494 100.01250426 85.09722395 109.20598587 88.875 120.3203125 C92.88442656 135.57045283 91.2940782 151.02817552 83.8203125 164.87109375 C76.45938886 176.91057055 66.17888204 183.41751549 52.87109375 186.95703125 C47.25224597 188.18395629 41.80361867 188.69585375 36.05737305 188.69970703 C35.39632065 188.70145935 34.73526825 188.70321167 34.05418396 188.70501709 C31.89416796 188.70937791 29.73423541 188.70651986 27.57421875 188.703125 C26.06443771 188.7037993 24.55465677 188.70477037 23.0448761 188.70602417 C19.89375771 188.70749296 16.7426678 188.70537147 13.59155273 188.70068359 C9.54847058 188.6949622 5.50545447 188.69828563 1.46237469 188.70425606 C-1.64906821 188.70786291 -4.76049534 188.70672294 -7.87193871 188.70412827 C-9.36351721 188.70346061 -10.85509713 188.70428181 -12.34667397 188.70660782 C-14.42427013 188.70913901 -16.50175766 188.70528828 -18.5793457 188.69970703 C-19.76180374 188.69891144 -20.94426178 188.69811584 -22.16255188 188.69729614 C-24.9375 188.5703125 -24.9375 188.5703125 -26.9375 187.5703125 C-26.9375 186.9103125 -26.9375 186.2503125 -26.9375 185.5703125 C-25.33618164 184.16918945 -25.33618164 184.16918945 -23.09765625 182.55859375 C-22.28103516 181.96498047 -21.46441406 181.37136719 -20.62304688 180.75976562 C-19.75744141 180.14037109 -18.89183594 179.52097656 -18 178.8828125 C-4.93404486 170.91842087 -4.93404486 170.91842087 4.0625 159.5703125 C3.98498654 156.51628212 3.6056848 153.57418987 3.0625 150.5703125 C2.4025 150.5703125 1.7425 150.5703125 1.0625 150.5703125 C1.0625 149.9103125 1.0625 149.2503125 1.0625 148.5703125 C0.4025 148.9003125 -0.2575 149.2303125 -0.9375 149.5703125 C-0.710625 150.6015625 -0.48375 151.6328125 -0.25 152.6953125 C0.11608179 157.23472666 -0.58879686 158.73458977 -2.9375 162.5703125 C-5.40625 164.88671875 -5.40625 164.88671875 -8.4375 167.1328125 C-8.99066895 167.544104 -9.54383789 167.95539551 -10.11376953 168.37915039 C-12.04111782 169.79656425 -13.9861645 171.18610944 -15.9375 172.5703125 C-16.71448242 173.12299805 -17.49146484 173.67568359 -18.29199219 174.24511719 C-20.79029808 176.01192383 -23.29860232 177.76327103 -25.8125 179.5078125 C-27.00649414 180.34131226 -27.00649414 180.34131226 -28.22460938 181.19165039 C-28.99353516 181.71750732 -29.76246094 182.24336426 -30.5546875 182.78515625 C-31.23128418 183.25042725 -31.90788086 183.71569824 -32.60498047 184.19506836 C-39.57077469 188.30207263 -44.67845058 188.99105671 -52.68359375 188.86328125 C-53.69470718 188.85903641 -54.70582062 188.85479156 -55.74757385 188.85041809 C-58.95699401 188.83371004 -62.16577165 188.79607203 -65.375 188.7578125 C-67.55923568 188.74275551 -69.74348127 188.72906888 -71.92773438 188.71679688 C-77.2645398 188.68383241 -82.60097398 188.63371193 -87.9375 188.5703125 C-87.9375 187.5803125 -87.9375 186.5903125 -87.9375 185.5703125 C-87.25574707 185.32498779 -86.57399414 185.07966309 -85.87158203 184.8269043 C-72.80420746 180.10516233 -59.81887091 175.2476916 -47 169.8828125 C-45.96697754 169.45637451 -44.93395508 169.02993652 -43.86962891 168.59057617 C-35.19790452 164.91185386 -26.19720458 160.67408666 -18.9375 154.5703125 C-18.16298041 151.5291841 -18.37539342 148.64568408 -18.9375 145.5703125 C-20.79466187 142.66221707 -20.79466187 142.66221707 -22.9375 140.5703125 C-22.9375 139.9103125 -22.9375 139.2503125 -22.9375 138.5703125 C-23.52499023 138.29703125 -24.11248047 138.02375 -24.71777344 137.7421875 C-26.86965748 136.60612905 -28.54446467 135.31903892 -30.453125 133.8203125 C-37.97384933 128.76147426 -47.05532583 126.96420793 -55.6875 124.5703125 C-57.54187235 124.04259372 -59.39579474 123.5132913 -61.24926758 122.98242188 C-68.85076506 120.81189517 -76.46682548 118.6950887 -84.08984375 116.6015625 C-85.05631836 116.3334375 -86.02279297 116.0653125 -87.01855469 115.7890625 C-88.68408162 115.32977894 -90.3525101 114.88081048 -92.02441406 114.4453125 C-104.75884943 110.96864582 -111.83385924 100.33887173 -119.1484375 90.06640625 C-121.28677882 87.08299992 -123.45360593 84.27337369 -125.9375 81.5703125 C-126.5975 81.5703125 -127.2575 81.5703125 -127.9375 81.5703125 C-127.4425 79.5903125 -127.4425 79.5903125 -126.9375 77.5703125 C-124.2497562 77.71240919 -121.56236698 77.8588848 -118.875 78.0078125 C-118.12283203 78.04712891 -117.37066406 78.08644531 -116.59570312 78.12695312 C-114.37419869 78.25197285 -112.15668234 78.40980797 -109.9375 78.5703125 C-108.67421875 78.63992188 -107.4109375 78.70953125 -106.109375 78.78125 C-102.9375 79.5703125 -102.9375 79.5703125 -100.92578125 81.86328125 C-100.37277344 82.81847656 -99.81976563 83.77367187 -99.25 84.7578125 C-91.17955058 96.61080653 -76.06208008 98.93671214 -62.9375 102.5703125 C-62.6075 102.2403125 -62.2775 101.9103125 -61.9375 101.5703125 C-62.411875 100.9928125 -62.88625 100.4153125 -63.375 99.8203125 C-64.94159762 97.56441193 -65.57469745 96.26109809 -65.9375 93.5703125 C-64.43907461 91.09555088 -62.94370923 88.9096466 -61.1875 86.6328125 C-60.27438072 85.41660984 -59.36288848 84.1991837 -58.453125 82.98046875 C-58.04352539 82.44558838 -57.63392578 81.91070801 -57.21191406 81.35961914 C-55.65332274 79.17132109 -54.31035439 76.87862342 -52.9375 74.5703125 C-63.39316269 74.40920012 -73.84892506 74.2560662 -84.30476761 74.10715485 C-86.86308836 74.07048324 -89.42139745 74.03307007 -91.97970581 73.99554443 C-109.83368933 73.73562756 -127.68300752 73.51685121 -145.5390625 73.609375 C-146.88649987 73.61537567 -148.2339374 73.6213374 -149.58137512 73.6272583 C-155.8195728 73.65786306 -162.0568696 73.7073139 -168.29467773 73.78320312 C-170.49983429 73.79860472 -172.70499371 73.81360426 -174.91015625 73.828125 C-175.90862579 73.84678619 -176.90709534 73.86544739 -177.93582153 73.88467407 C-178.83751068 73.88808807 -179.73919983 73.89150208 -180.66821289 73.89501953 C-181.45015518 73.90469757 -182.23209747 73.91437561 -183.03773499 73.92434692 C-183.97811867 73.74909988 -183.97811867 73.74909988 -184.9375 73.5703125 C-185.5975 72.5803125 -186.2575 71.5903125 -186.9375 70.5703125 C-186.2775 70.5703125 -185.6175 70.5703125 -184.9375 70.5703125 C-184.793125 69.6215625 -184.64875 68.6728125 -184.5 67.6953125 C-182.29962692 60.01741495 -174.89848957 53.35245812 -168.08984375 49.5234375 C-162.98708604 47.2637771 -157.58979135 45.8201919 -152.03515625 45.296875 C-146.42136162 44.77039982 -146.42136162 44.77039982 -142.0078125 41.5390625 C-140.85189932 39.81318292 -139.73191191 38.06282719 -138.64453125 36.29296875 C-131.35735046 24.67016553 -118.89524756 18.30955664 -106 14.6328125 C-102.53878559 13.84896312 -99.30280607 13.52327241 -95.76953125 13.53125 C-87.44193532 13.73858615 -87.44193532 13.73858615 -80.015625 10.53515625 C-78.37886533 8.80717589 -76.79172346 7.03083186 -75.2578125 5.2109375 C-57.38164206 -15.13298711 -20.92938418 -15.4438601 0 0 Z M-67.9375 34.5703125 C-60.79925549 41.77914534 -52.90547294 46.74092014 -44 51.5078125 C-43.25395508 51.90967773 -42.50791016 52.31154297 -41.73925781 52.72558594 C-41.0325293 53.09586914 -40.32580078 53.46615234 -39.59765625 53.84765625 C-38.96480713 54.18015381 -38.33195801 54.51265137 -37.67993164 54.85522461 C-35.78884833 55.76014615 -35.78884833 55.76014615 -32.9375 55.5703125 C-31.25646503 53.92066442 -31.25646503 53.92066442 -29.6875 51.6953125 C-29.08292969 50.88449219 -28.47835937 50.07367188 -27.85546875 49.23828125 C-24.84052184 45.04437343 -21.86183745 40.82793451 -18.9375 36.5703125 C-19.4325 35.5803125 -19.4325 35.5803125 -19.9375 34.5703125 C-20.9275 34.5703125 -21.9175 34.5703125 -22.9375 34.5703125 C-37.9375 34.5703125 -52.9375 34.5703125 -67.9375 34.5703125 Z M-9.9375 49.5703125 C-14.43233966 55.40453901 -18.57459678 61.42136375 -22.625 67.5703125 C-27.52277944 74.96993416 -32.47303426 82.32548985 -37.5612793 89.59570312 C-39.58054374 92.50026852 -41.48601161 95.33671893 -42.9375 98.5703125 C-38.58313115 103.23570769 -33.67580847 106.95732837 -28.5625 110.7578125 C-27.67127441 111.42272705 -26.78004883 112.0876416 -25.86181641 112.77270508 C-19.01877041 117.84328797 -12.04552518 122.65042111 -4.90478516 127.28857422 C-1.0875903 129.77557757 2.70528806 132.29920027 6.5 134.8203125 C7.2336377 135.30395264 7.96727539 135.78759277 8.72314453 136.28588867 C25.12761527 147.16937306 25.12761527 147.16937306 27.0625 153.5703125 C27.89598192 160.14236537 27.32712037 164.75077184 24.0625 170.5703125 C24.14495238 173.45614595 24.73726051 174.25668871 26.8125 176.2578125 C32.44413266 179.54293155 39.96276489 179.37115681 46.2421875 178.14453125 C52.52247479 176.15292263 56.72364212 172.10410089 60.31640625 166.67578125 C66.78433039 154.19340366 65.87078633 138.26961468 62.08984375 125.2109375 C59.04322078 116.90759896 54.4694126 111.53692923 46.5 107.6328125 C39.68121863 105.52518917 33.40960494 106.42609046 27.0625 109.5703125 C24.43063823 111.70921464 23.18813422 112.83514971 22.60839844 116.22753906 C22.63981934 117.70432129 22.63981934 117.70432129 22.671875 119.2109375 C22.69121094 120.81582031 22.69121094 120.81582031 22.7109375 122.453125 C22.74445313 123.56429687 22.77796875 124.67546875 22.8125 125.8203125 C22.83054687 126.94695312 22.84859375 128.07359375 22.8671875 129.234375 C22.91429778 132.01388146 22.98006639 134.7916659 23.0625 137.5703125 C20.82956126 136.26390436 18.60050169 134.95180829 16.375 133.6328125 C15.70178711 133.23400879 15.02857422 132.83520508 14.33496094 132.42431641 C8.55006497 128.95365029 3.09558759 125.13207124 -2.328125 121.125 C-3.18921875 120.61195313 -4.0503125 120.09890625 -4.9375 119.5703125 C-5.9275 119.9003125 -6.9175 120.2303125 -7.9375 120.5703125 C-7.9375 97.4703125 -7.9375 74.3703125 -7.9375 50.5703125 C-8.5975 50.2403125 -9.2575 49.9103125 -9.9375 49.5703125 Z " fill="#1E493E" transform="translate(287.9375,362.4296875)"/>
<path d="M0 0 C0.495 6.435 0.495 6.435 1 13 C2.0725 11.96875 3.145 10.9375 4.25 9.875 C12.62984025 2.61640598 21.800859 -1.60927969 33 -1 C40.79636701 0.02787923 47.52185724 2.16596861 53 8 C59.82133747 17.26376009 60.29130101 27.39741415 60.34375 38.55078125 C60.3583728 39.72714645 60.37299561 40.90351166 60.38806152 42.11552429 C60.45002453 47.11735547 60.49005733 52.11930303 60.53173828 57.12133789 C60.56542146 60.78545137 60.61051895 64.44930158 60.65625 68.11328125 C60.66416565 69.81173943 60.66416565 69.81173943 60.67224121 71.54450989 C60.68565552 72.59627914 60.69906982 73.6480484 60.71289062 74.73168945 C60.72382751 76.11660332 60.72382751 76.11660332 60.73498535 77.52949524 C61.01776384 80.1655971 61.56548987 81.78055426 63 84 C65.38842417 85.34147542 65.38842417 85.34147542 68.125 86.25 C69.03507813 86.58515625 69.94515625 86.9203125 70.8828125 87.265625 C71.93082031 87.62914062 71.93082031 87.62914062 73 88 C73 89.98 73 91.96 73 94 C57.16 94 41.32 94 25 94 C24.67 92.35 24.34 90.7 24 89 C24.7425 88.566875 25.485 88.13375 26.25 87.6875 C30.82829424 85.24602809 30.82829424 85.24602809 33.60029602 81.18769836 C34.02010542 78.8899571 34.13395529 76.76966325 34.14526367 74.43432617 C34.15164352 73.53626755 34.15802338 72.63820892 34.16459656 71.7129364 C34.16570938 70.74934708 34.1668222 69.78575775 34.16796875 68.79296875 C34.17129715 67.79421219 34.17462555 66.79545563 34.17805481 65.76643372 C34.18311456 63.65410828 34.18546343 61.54177485 34.18530273 59.42944336 C34.18748476 56.20998836 34.20563843 52.99087857 34.22460938 49.77148438 C34.22754444 47.716147 34.22952848 45.660808 34.23046875 43.60546875 C34.24124702 42.1691938 34.24124702 42.1691938 34.25224304 40.7039032 C34.23421716 35.38679981 33.72471729 31.03304235 32 26 C31.62875 24.6078125 31.62875 24.6078125 31.25 23.1875 C30.14804575 20.74192128 30.14804575 20.74192128 27.32421875 19.88671875 C21.42390977 18.3128408 14.47004166 17.66088996 8.671875 19.8984375 C7.06368458 20.85118897 5.52333698 21.91673815 4 23 C3.34 23 2.68 23 2 23 C0.97527687 26.07416938 0.86133219 28.21215178 0.83886719 31.43359375 C0.82925964 32.54484619 0.8196521 33.65609863 0.80975342 34.80102539 C0.80550354 36.00106201 0.80125366 37.20109863 0.796875 38.4375 C0.78832489 40.28492798 0.78832489 40.28492798 0.77960205 42.16967773 C0.77015093 44.77554464 0.76361763 47.38142349 0.75976562 49.98730469 C0.75536417 52.66257242 0.74140854 55.33752065 0.71875 58.01269531 C0.68839742 61.86273045 0.67773068 65.7123588 0.671875 69.5625 C0.6595282 70.76253662 0.6471814 71.96257324 0.63446045 73.19897461 C0.63746155 74.31022705 0.64046265 75.42147949 0.64355469 76.56640625 C0.63990906 77.54552979 0.63626343 78.52465332 0.63250732 79.53344727 C1.06417435 82.43072806 1.68583922 83.26637401 4 85 C6.71825785 86.21866975 6.71825785 86.21866975 9.6875 87.1875 C11.17830078 87.70376953 11.17830078 87.70376953 12.69921875 88.23046875 C13.45847656 88.48441406 14.21773437 88.73835937 15 89 C14.01 89.495 14.01 89.495 13 90 C12.34786708 92.02463255 12.34786708 92.02463255 12 94 C6.85880886 94.02483298 1.71765313 94.04292277 -3.42358398 94.05493164 C-5.17033497 94.05994129 -6.9170818 94.06675085 -8.66381836 94.07543945 C-11.18344146 94.08765319 -13.70300881 94.09326213 -16.22265625 94.09765625 C-16.99585709 94.10281754 -17.76905792 94.10797882 -18.56568909 94.11329651 C-23.14927328 94.1137642 -27.47776262 93.75676121 -32 93 C-32.495 93.99 -32.495 93.99 -33 95 C-34.32 94.67 -35.64 94.34 -37 94 C-37 93.01 -37 92.02 -37 91 C-37.66 90.67 -38.32 90.34 -39 90 C-38.34 90 -37.68 90 -37 90 C-37 89.34 -37 88.68 -37 88 C-36.04287109 87.60167969 -36.04287109 87.60167969 -35.06640625 87.1953125 C-34.24011719 86.84210938 -33.41382813 86.48890625 -32.5625 86.125 C-31.73878906 85.77695312 -30.91507812 85.42890625 -30.06640625 85.0703125 C-27.84253285 84.1755063 -27.84253285 84.1755063 -27 82 C-24.36258664 65.0033361 -26.21996697 47.07905051 -26.90820312 29.99755859 C-26.97188375 27.91811512 -26.97547532 25.83630412 -26.93164062 23.75634766 C-26.77921851 20.96292909 -26.77921851 20.96292909 -28.3125 18.75 C-32.50209474 16.0218918 -37.10415184 15.64152493 -42 15 C-41.67 12.69 -41.34 10.38 -41 8 C-35.80679276 6.68800382 -30.61072296 5.38829303 -25.41162109 4.09985352 C-23.6435281 3.65985753 -21.876263 3.21652065 -20.10986328 2.76977539 C-17.57014047 2.12806353 -15.02767895 1.49844059 -12.484375 0.87109375 C-11.69569031 0.66906845 -10.90700562 0.46704315 -10.09442139 0.25889587 C-6.14804261 -0.70182832 -4.02414724 -1.00603681 0 0 Z " fill="#1F4B3F" transform="translate(536,454)"/>
<path d="M0 0 C6.37303816 6.03681073 8.12497602 12.54383543 8.37890625 21.09375 C8.39964203 21.76705353 8.42037781 22.44035706 8.44174194 23.13406372 C8.5073631 25.31843626 8.56625518 27.50293269 8.625 29.6875 C8.66920647 31.18799258 8.71355919 32.68848086 8.75805664 34.18896484 C9.01367615 43.17237367 9.17865365 52.14836855 8.93774414 61.13476562 C8.85889608 65.93307799 9.5569693 69.68862004 11.0625 74.1875 C16.55196087 75.30779814 19.89680559 74.97967969 25.0625 73.1875 C26.0625 74.1875 26.0625 74.1875 26.3359375 76.52734375 C25.99449359 79.84910522 25.19696177 80.61249402 22.6875 82.75 C15.88663835 88.25317074 8.80264785 91.04718667 0.0625 90.1875 C-5.47755153 89.15460904 -8.36917989 87.57143613 -11.9375 83.1875 C-13.25 80.375 -13.25 80.375 -13.9375 78.1875 C-15.113125 79.2703125 -15.113125 79.2703125 -16.3125 80.375 C-27.13025232 89.35577551 -39.28313824 91.11346856 -52.9375 90.1875 C-59.49090833 89.06862541 -64.55845909 86.20737617 -68.9375 81.1875 C-72.42991822 75.44190873 -72.75143555 69.73684185 -71.9375 63.1875 C-70.07016081 56.16630463 -64.82264756 51.15581618 -58.9375 47.1875 C-50.79949967 42.85129642 -42.23153259 40.31228077 -33.375 37.875 C-32.10591797 37.51599609 -30.83683594 37.15699219 -29.52929688 36.78710938 C-20.25488095 34.1875 -20.25488095 34.1875 -17.9375 34.1875 C-15.6082754 29.5290508 -16.40048149 22.77956572 -17.43359375 17.79296875 C-18.98264289 13.21583485 -21.17089592 10.16574509 -24.9375 7.1875 C-32.13898239 3.89986674 -38.61727848 5.13270098 -45.9375 7.1875 C-45.6075 8.363125 -45.2775 9.53875 -44.9375 10.75 C-43.70927643 15.75125568 -42.99389004 20.1115581 -45.1875 24.9375 C-48.68454708 29.43370339 -52.25264013 31.33477102 -57.9375 32.1875 C-62.28357378 30.82935194 -65.95678736 28.65038674 -68.9375 25.1875 C-70.66658249 20.00025254 -70.58393318 14.99052384 -68.1484375 10.0078125 C-62.23896446 1.12454012 -52.11767341 -3.91036814 -41.953125 -6.27392578 C-27.97177981 -8.95300622 -11.68897666 -9.28169272 0 0 Z M-42.9375 53.1875 C-42.9375 53.8475 -42.9375 54.5075 -42.9375 55.1875 C-43.5975 55.1875 -44.2575 55.1875 -44.9375 55.1875 C-47.36871584 59.50315222 -47.78007531 63.3174147 -46.9375 68.1875 C-45.0104972 71.75986674 -42.85067895 73.88310702 -38.9375 75.1875 C-31.19499743 75.97334469 -24.81511761 74.87530279 -17.9375 71.1875 C-15.66910023 69.34794022 -15.66910023 69.34794022 -15.71044922 66.57373047 C-15.72092285 65.49494629 -15.73139648 64.41616211 -15.7421875 63.3046875 C-15.74863281 62.13808594 -15.75507812 60.97148438 -15.76171875 59.76953125 C-15.77847656 58.54621094 -15.79523437 57.32289063 -15.8125 56.0625 C-15.82152344 54.83144531 -15.83054687 53.60039063 -15.83984375 52.33203125 C-15.86347452 49.28366185 -15.89641946 46.23567618 -15.9375 43.1875 C-24.57432527 43.1875 -35.95473154 48.5124271 -42.9375 53.1875 Z " fill="#1F493E" transform="translate(771.9375,460.8125)"/>
<path d="M0 0 C8.69227634 6.94382995 14.78195708 17.53320545 16.7265625 28.44140625 C17.72074767 39.58846267 18.28977006 51.40452139 12.7265625 61.44140625 C12.24058594 62.36953125 11.75460937 63.29765625 11.25390625 64.25390625 C5.00553452 75.12577762 -4.66161037 82.10348083 -16.421875 86.1875 C-32.09145853 90.17362213 -50.23396044 88.43889276 -64.1484375 80.25390625 C-74.51504929 73.0887481 -81.78257385 62.89572451 -84.2734375 50.44140625 C-86.66843165 34.26989706 -84.0181307 20.48977977 -74.59765625 7.05078125 C-56.74213903 -15.43111195 -22.3309851 -15.30938669 0 0 Z M-49.99609375 5.39453125 C-55.76093983 13.49647709 -57.74894223 21.80699281 -58.0859375 31.62890625 C-58.12162842 32.54583252 -58.15731934 33.46275879 -58.1940918 34.4074707 C-58.56380768 47.37937908 -57.42711114 60.50517738 -48.8984375 70.87890625 C-43.86787423 76.11026931 -40.04010132 77.60219621 -32.7734375 77.81640625 C-25.42647117 77.59982901 -21.63365895 76.0733477 -16.5859375 70.75390625 C-9.36793947 62.07000134 -9.07968805 52.13135729 -9.0234375 41.25390625 C-9.0028125 40.27615234 -8.9821875 39.29839844 -8.9609375 38.29101562 C-8.90215248 27.17329863 -11.48050399 14.78660725 -19.19921875 6.33203125 C-25.08049285 0.9713219 -29.71945768 -1.08509912 -37.71484375 -0.859375 C-42.8797202 -0.25220632 -46.53876438 1.47465669 -49.99609375 5.39453125 Z " fill="#1F4B3F" transform="translate(473.2734375,463.55859375)"/>
<path d="M0 0 C1.14806378 17.85649203 1.14806378 17.85649203 1 26 C-0.98 26.99 -0.98 26.99 -3 28 C-6.34410727 25.00677336 -8.00818724 22.21200239 -9.8125 18.125 C-13.00612877 11.52858794 -16.30597983 7.72911582 -22.9375 4.625 C-28.19292885 3.5524635 -32.29837517 3.36976858 -37.375 5.25 C-40.69862025 7.43347146 -40.69862025 7.43347146 -42 11 C-41.81483638 16.83265402 -41.29634375 19.78726773 -37 24 C-33.56995888 25.93000889 -29.99456222 27.46180623 -26.375 29 C-24.46531495 29.8314275 -22.55645505 30.66475292 -20.6484375 31.5 C-19.24356079 32.11355347 -19.24356079 32.11355347 -17.81030273 32.73950195 C-7.38763931 37.41435307 0.62804021 41.4726917 6 52 C6.8125 54.375 6.8125 54.375 7 57 C7.0928125 58.07701172 7.0928125 58.07701172 7.1875 59.17578125 C7.57920893 67.04668265 5.38233252 73.17125131 1.25 79.8125 C-9.62101838 90.38154565 -23.59321284 91.39575814 -37.96484375 91.21484375 C-47.49736438 90.92973585 -57.04787414 88.46812847 -65 83 C-66.01973129 79.94080612 -66.11533602 77.87581975 -66.09765625 74.67578125 C-66.09443359 73.64775391 -66.09121094 72.61972656 -66.08789062 71.56054688 C-66.07951172 70.48869141 -66.07113281 69.41683594 -66.0625 68.3125 C-66.05798828 67.22904297 -66.05347656 66.14558594 -66.04882812 65.02929688 C-66.03703743 62.35280915 -66.02058063 59.67643223 -66 57 C-63.03 56.505 -63.03 56.505 -60 56 C-59.1646875 57.485 -59.1646875 57.485 -58.3125 59 C-57.75755859 59.9590625 -57.75755859 59.9590625 -57.19140625 60.9375 C-56.41393293 62.28342102 -55.65018235 63.63739016 -54.90234375 65 C-50.88665934 71.96959463 -45.85738363 77.31733629 -38.125 80 C-32.39513416 81.41924369 -26.52253493 81.64337329 -21.07421875 79.1015625 C-18.79166918 77.65249762 -17.22030997 76.44061994 -16 74 C-15.48328608 67.799433 -15.87723538 64.98689608 -20 60 C-22.50949405 58.59237575 -24.72435477 57.52266747 -27.375 56.5 C-28.07890869 56.20867188 -28.78281738 55.91734375 -29.50805664 55.6171875 C-31.66510936 54.72638355 -33.83038002 53.85968891 -36 53 C-46.32548795 48.90360012 -56.75192827 44.7469919 -63 35 C-65.83834279 27.84243993 -66.69121642 18.48524203 -63.9375 11.125 C-58.13529137 1.76659899 -51.96712357 -2.59664447 -41.41015625 -5.78125 C-27.73757129 -8.90641228 -12.32782444 -6.54548774 0 0 Z " fill="#204C40" transform="translate(683,460)"/>
<path d="M0 0 C1.20365588 3.75439636 1.12690703 7.45360973 1.09765625 11.35131836 C1.09619598 12.08514236 1.09473572 12.81896637 1.0932312 13.57502747 C1.08943211 15.16501986 1.08332282 16.75500805 1.07516479 18.34498405 C1.06238318 20.86285625 1.05588082 23.38067566 1.05102539 25.89857483 C1.03766446 32.15211712 1.01346508 38.40560915 0.98962402 44.65911865 C0.96988304 49.94458802 0.95424607 55.23003868 0.94406128 60.51553535 C0.93758894 62.99329618 0.92508043 65.47097977 0.91235352 67.94871521 C0.90871984 69.4722385 0.90536825 70.99576249 0.90234375 72.51928711 C0.89459427 73.54888046 0.89459427 73.54888046 0.88668823 74.59927368 C0.88629413 78.18037508 0.9746094 81.55316268 2 85 C4.16924452 86.32006573 4.16924452 86.32006573 7 87 C8.8871875 87.556875 8.8871875 87.556875 10.8125 88.125 C11.864375 88.41375 12.91625 88.7025 14 89 C14 90.65 14 92.3 14 94 C7.67221796 94.80454422 1.52670607 95.13634502 -4.84765625 95.09765625 C-5.74495956 95.0962413 -6.64226288 95.09482635 -7.5667572 95.09336853 C-10.39870714 95.0878251 -13.23057445 95.07528358 -16.0625 95.0625 C-17.99674364 95.05747767 -19.93098853 95.05291606 -21.86523438 95.04882812 C-26.57685417 95.03787429 -31.28841313 95.02064953 -36 95 C-36.56640625 93.09765625 -36.56640625 93.09765625 -37 91 C-35.34472557 88.5657729 -33.60021162 87.80418528 -30.9375 86.5 C-27.76974251 85.18410745 -27.76974251 85.18410745 -26 82 C-25.69611455 79.47623436 -25.69611455 79.47623436 -25.74121094 76.61401367 C-25.73490662 75.51244431 -25.72860229 74.41087494 -25.72210693 73.27592468 C-25.7261554 72.08529922 -25.73020386 70.89467377 -25.734375 69.66796875 C-25.73246155 68.44346512 -25.7305481 67.21896149 -25.72857666 65.95735168 C-25.72721441 63.36406245 -25.73091363 60.7707664 -25.73925781 58.17749023 C-25.749929 54.21387311 -25.73937773 50.25071209 -25.7265625 46.28710938 C-25.72788463 43.76822817 -25.73044812 41.24934724 -25.734375 38.73046875 C-25.73032654 37.54591599 -25.72627808 36.36136322 -25.72210693 35.14091492 C-25.72841125 34.02988907 -25.73471558 32.91886322 -25.74121094 31.77416992 C-25.74280212 30.80170822 -25.74439331 29.82924652 -25.74603271 28.82731628 C-26.03731627 25.58457285 -26.71046895 22.99026715 -28 20 C-32.21960696 17.64675766 -36.22396276 16.58244357 -41 16 C-41 14.02 -41 12.04 -41 10 C-35.40489758 8.08633767 -29.74029931 6.49386004 -24.046875 4.90234375 C-21.11636424 4.13102386 -21.11636424 4.13102386 -19 3 C-17.21407796 2.637146 -15.42116264 2.30818876 -13.625 2 C-9.73619036 1.33587875 -9.73619036 1.33587875 -5.8984375 0.4375 C-4 0 -4 0 0 0 Z " fill="#204C40" transform="translate(837,453)"/>
<path d="M0 0 C4.48047353 2.52631808 6.94072665 5.47642617 8.34765625 10.515625 C9.07090651 14.64447117 9.04242102 17.53436484 7 21.25 C3.5291223 26.07066348 1.64757374 27.90060657 -4.25 29.375 C-10.20711571 30.03690175 -14.39839164 28.7321867 -19.25 25.375 C-22.76016801 21.77707779 -23.55142601 18.82426963 -23.8125 13.9375 C-23.59803965 8.5020394 -22.24904854 5.07860432 -18.25 1.375 C-12.36064164 -2.68211354 -6.38300793 -2.83557416 0 0 Z " fill="#214D41" transform="translate(832.25,410.625)"/>
<path d="M0 0 C-1.18487057 8.82524284 -4.7985402 14.57550529 -11.625 20.25 C-19.06895307 25.45367767 -27.6778546 27.35822159 -36.625 27.82421875 C-38.98031296 27.90819254 -38.98031296 27.90819254 -41.0625 28.64453125 C-43.62441872 29.11456069 -44.82162419 28.32258531 -47 27 C-45.61618399 25.37401619 -44.23030592 23.74975616 -42.8359375 22.1328125 C-41.5824887 20.67667837 -40.3380545 19.21274795 -39.1015625 17.7421875 C-28.52928166 5.41482447 -16.55548072 -0.40379221 0 0 Z " fill="#F1BB25" transform="translate(334,354)"/>
<path d="M0 0 C1.15697591 3.67732292 1.12696165 7.14608324 1.12939453 10.98413086 C1.13114685 11.67894058 1.13289917 12.37375031 1.13470459 13.08961487 C1.1390978 15.3813834 1.1361937 17.67307446 1.1328125 19.96484375 C1.13348634 21.5614066 1.13445704 23.15796936 1.13571167 24.75453186 C1.13718528 28.09930397 1.13504518 31.44404936 1.13037109 34.78881836 C1.12467863 39.07046357 1.12795188 43.35204603 1.13394356 47.63368893 C1.13756219 50.93055186 1.13640451 54.22739999 1.13381577 57.52426338 C1.13314986 59.1026771 1.13396314 60.68109218 1.13629532 62.25950432 C1.13884269 64.46853046 1.13495169 66.67745594 1.12939453 68.88647461 C1.12859894 70.142379 1.12780334 71.39828339 1.12698364 72.69224548 C1.01554712 75.59501836 0.6743484 78.18230807 0 81 C-0.33 81 -0.66 81 -1 81 C-1 54.93 -1 28.86 -1 2 C-13.26055748 4.75547816 -13.26055748 4.75547816 -24.796875 8.33984375 C-29.41832105 9.72463876 -34.2331494 10.31441235 -39 11 C-39 11.99 -39 12.98 -39 14 C-38.32453125 14.09796875 -37.6490625 14.1959375 -36.953125 14.296875 C-29.66372829 15.51879699 -29.66372829 15.51879699 -26.5 17.8125 C-23.67112716 21.93793956 -22.74958352 25.53404274 -22.7253418 30.50537109 C-22.71104378 32.12262589 -22.71104378 32.12262589 -22.69645691 33.77255249 C-22.69736832 34.92784454 -22.69827972 36.0831366 -22.69921875 37.2734375 C-22.69493362 38.47054352 -22.6906485 39.66764954 -22.68623352 40.90103149 C-22.68049534 43.43108488 -22.67998618 45.96115477 -22.68432617 48.49121094 C-22.68748268 52.35380342 -22.66403121 56.21562736 -22.63867188 60.078125 C-22.63639844 62.53906154 -22.63569559 65.00000013 -22.63671875 67.4609375 C-22.627509 68.61218109 -22.61829926 69.76342468 -22.60881042 70.94955444 C-22.64390448 77.05966566 -22.94505288 81.64535012 -26 87 C-28.0078125 88.48828125 -28.0078125 88.48828125 -30.125 89.3125 C-33.22600705 90.40335059 -33.22600705 90.40335059 -35 93 C-12.23 92.505 -12.23 92.505 11 92 C8.98452539 89.7369316 8.98452539 89.7369316 5.5 88.5 C2 87 2 87 0 85 C0.495 83.515 0.495 83.515 1 82 C1.33 82.99 1.66 83.98 2 85 C5.7960081 86.89800405 9.91817126 87.87949799 14 89 C14 90.65 14 92.3 14 94 C7.67221796 94.80454422 1.52670607 95.13634502 -4.84765625 95.09765625 C-5.74495956 95.0962413 -6.64226288 95.09482635 -7.5667572 95.09336853 C-10.39870714 95.0878251 -13.23057445 95.07528358 -16.0625 95.0625 C-17.99674364 95.05747767 -19.93098853 95.05291606 -21.86523438 95.04882812 C-26.57685417 95.03787429 -31.28841313 95.02064953 -36 95 C-36.56640625 93.09765625 -36.56640625 93.09765625 -37 91 C-35.34472557 88.5657729 -33.60021162 87.80418528 -30.9375 86.5 C-27.76974251 85.18410745 -27.76974251 85.18410745 -26 82 C-25.69611455 79.47623436 -25.69611455 79.47623436 -25.74121094 76.61401367 C-25.73490662 75.51244431 -25.72860229 74.41087494 -25.72210693 73.27592468 C-25.7261554 72.08529922 -25.73020386 70.89467377 -25.734375 69.66796875 C-25.73246155 68.44346512 -25.7305481 67.21896149 -25.72857666 65.95735168 C-25.72721441 63.36406245 -25.73091363 60.7707664 -25.73925781 58.17749023 C-25.749929 54.21387311 -25.73937773 50.25071209 -25.7265625 46.28710938 C-25.72788463 43.76822817 -25.73044812 41.24934724 -25.734375 38.73046875 C-25.73032654 37.54591599 -25.72627808 36.36136322 -25.72210693 35.14091492 C-25.72841125 34.02988907 -25.73471558 32.91886322 -25.74121094 31.77416992 C-25.74280212 30.80170822 -25.74439331 29.82924652 -25.74603271 28.82731628 C-26.03731627 25.58457285 -26.71046895 22.99026715 -28 20 C-32.21960696 17.64675766 -36.22396276 16.58244357 -41 16 C-41 14.02 -41 12.04 -41 10 C-35.40489758 8.08633767 -29.74029931 6.49386004 -24.046875 4.90234375 C-21.11636424 4.13102386 -21.11636424 4.13102386 -19 3 C-17.21407796 2.637146 -15.42116264 2.30818876 -13.625 2 C-9.73619036 1.33587875 -9.73619036 1.33587875 -5.8984375 0.4375 C-4 0 -4 0 0 0 Z " fill="#0D1C16" transform="translate(837,453)"/>
<path d="M0 0 C0.66 0.33 1.32 0.66 2 1 C1.67273894 3.94534955 1.04506274 4.95716156 -1.13671875 7.03125 C-4.99292067 10.77867136 -7.70999109 15.32504786 -10.625 19.8125 C-11.86092339 21.6934025 -13.09791553 23.57360314 -14.3359375 25.453125 C-14.94920898 26.38576172 -15.56248047 27.31839844 -16.19433594 28.27929688 C-19.26724698 32.90943759 -22.43683217 37.47230629 -25.62353516 42.0246582 C-29.48771208 47.07161206 -29.48771208 47.07161206 -31 53 C-30.42741455 53.26554687 -29.8548291 53.53109375 -29.26489258 53.8046875 C-26.88839942 55.05889797 -24.89184024 56.48845775 -22.76171875 58.125 C-21.94944824 58.7439917 -21.13717773 59.3629834 -20.30029297 60.00073242 C-19.43807129 60.66049072 -18.57584961 61.32024902 -17.6875 62 C-9.94667183 67.86306116 -2.10371567 73.43415436 6.03710938 78.72265625 C36.91594007 98.8169401 36.91594007 98.8169401 39 106 C39.82559719 112.57597762 39.26716266 117.17592742 36 123 C35.9751247 125.23966377 35.9751247 125.23966377 37 127 C39.93580566 128.95720377 40.89822836 129.30195175 44.23046875 129.6328125 C45.03291016 129.71660156 45.83535156 129.80039062 46.66210938 129.88671875 C47.49548828 129.96535156 48.32886719 130.04398438 49.1875 130.125 C50.03248047 130.21136719 50.87746094 130.29773438 51.74804688 130.38671875 C53.83128923 130.5985739 55.91556042 130.80026777 58 131 C53.69729181 133.86847213 50.05131891 133.58967577 45 133 C35.96630497 130.44945745 35.96630497 130.44945745 33 126 C33.31038006 123.67214958 34.06624794 121.85157427 35.0234375 119.70703125 C37.03847002 114.12136109 36.95843991 108.16690762 34.5625 102.75 C26.55723768 94.15898678 15.89100632 88.15235093 6.11474609 81.76904297 C-3.26131643 75.64433704 -12.32078756 69.2023619 -21.20214844 62.37792969 C-22.85843502 61.10849983 -24.52636169 59.85429575 -26.1953125 58.6015625 C-27.10023438 57.90804687 -28.00515625 57.21453125 -28.9375 56.5 C-29.70964844 55.9121875 -30.48179687 55.324375 -31.27734375 54.71875 C-33.32875355 52.67199193 -33.84058915 51.89163137 -34 49 C-32.6488245 46.89177613 -31.31527413 45.11386224 -29.7109375 43.21484375 C-25.83368854 38.4086446 -22.20441087 33.52452977 -18.7890625 28.37890625 C-18.3632489 27.73819183 -17.9374353 27.09747742 -17.49871826 26.43734741 C-16.20380892 24.48146097 -14.91424513 22.52212343 -13.625 20.5625 C-12.74132964 19.22691952 -11.85721639 17.89163196 -10.97265625 16.55664062 C-9.35616077 14.11579949 -7.74220933 11.67332229 -6.13134766 9.22875977 C-4.09659615 6.14633266 -2.05116159 3.07151428 0 0 Z " fill="#0F2119" transform="translate(277,410)"/>
<path d="M0 0 C2.6877438 0.14209669 5.37513302 0.2885723 8.0625 0.4375 C8.81466797 0.47681641 9.56683594 0.51613281 10.34179688 0.55664062 C12.56330131 0.68166035 14.78081766 0.83949547 17 1 C18.26328125 1.06960938 19.5265625 1.13921875 20.828125 1.2109375 C24 2 24 2 26.01171875 4.29296875 C26.56472656 5.24816406 27.11773437 6.20335937 27.6875 7.1875 C35.75794942 19.04049403 50.87541992 21.36639964 64 25 C64.495 24.505 64.495 24.505 65 24 C64.525625 23.4225 64.05125 22.845 63.5625 22.25 C61.93712899 19.90946574 61.21351447 18.82037724 61 16 C62.546875 13.203125 62.546875 13.203125 64.75 10.25 C65.46671875 9.26515625 66.1834375 8.2803125 66.921875 7.265625 C67.60765625 6.51796875 68.2934375 5.7703125 69 5 C69.99 5 70.98 5 72 5 C71.41089844 5.74765625 70.82179688 6.4953125 70.21484375 7.265625 C69.46332031 8.25046875 68.71179688 9.2353125 67.9375 10.25 C67.18339844 11.22453125 66.42929688 12.1990625 65.65234375 13.203125 C63.79293726 15.76991573 63.79293726 15.76991573 64.09375 18.1640625 C65.05606449 20.11357892 66.09319433 21.52592659 67.5625 23.125 C70 26 70 26 70 28 C63.09058608 27.36054703 56.66162277 25.72112088 50 23.8125 C48.9584375 23.53341797 47.916875 23.25433594 46.84375 22.96679688 C38.03812023 20.44852018 31.52395281 16.85039678 26.25 9.1875 C24.25185319 6.15081735 24.25185319 6.15081735 21.28125 4.2734375 C17.94383264 3.8734046 14.6043539 3.63089848 11.25 3.4375 C10.55261719 3.39431641 9.85523438 3.35113281 9.13671875 3.30664062 C7.42468078 3.20110404 5.71236439 3.1001009 4 3 C9.12296839 9.78987784 14.31837632 16.51568104 19.75 23.0625 C20.18481689 23.59770264 20.61963379 24.13290527 21.06762695 24.68432617 C24.01854935 28.19855071 27.10033265 30.60799093 31 33 C31.99 33.66 32.98 34.32 34 35 C28.24210285 34.88004381 25.33482238 33.27271954 21.16796875 29.34765625 C17.18762599 25.03741121 13.71925788 20.33904508 10.22265625 15.63671875 C8.34811863 13.12735369 6.43263527 10.6523102 4.5 8.1875 C3.8709375 7.37667969 3.241875 6.56585938 2.59375 5.73046875 C2.0678125 5.15941406 1.541875 4.58835937 1 4 C0.34 4 -0.32 4 -1 4 C-0.67 2.68 -0.34 1.36 0 0 Z " fill="#0F251D" transform="translate(161,440)"/>
<path d="M0 0 C9.31868908 1.32399518 18.2059595 3.93585677 27.19848633 6.63085938 C29.69006183 7.37576591 32.18554822 8.10632932 34.68164062 8.8359375 C36.29192172 9.31424635 37.90195669 9.79338473 39.51171875 10.2734375 C40.2452507 10.48712982 40.97878265 10.70082214 41.73454285 10.92098999 C52.57960108 14.20641312 63.00087823 19.93583931 68.6875 30.1875 C69.69890158 32.65981498 70.02868254 34.35136115 70.25 37.0625 C64.07535868 51.57290711 37.48886168 58.52551971 24 64 C10.80177778 69.26725926 10.80177778 69.26725926 7 68 C12.88453934 65.30280321 18.83981207 62.8530963 24.86914062 60.49902344 C35.8857759 56.19007038 46.61618008 51.67401588 57 46 C57.9796875 45.50113281 58.959375 45.00226562 59.96875 44.48828125 C64.38261113 42.06726637 64.38261113 42.06726637 66.67578125 37.8046875 C66.91496222 33.6634398 66.35639522 31.52345548 64 28.0625 C63.34 27.381875 62.68 26.70125 62 26 C62 25.34 62 24.68 62 24 C61.4114624 23.72647705 60.8229248 23.4529541 60.21655273 23.17114258 C58.07427518 22.03924419 56.42883375 20.76143851 54.53515625 19.26171875 C46.80793589 14.05489725 37.31396123 12.25694443 28.4375 9.8125 C25.65463868 9.03165546 22.87310588 8.2463088 20.09230042 7.45817566 C18.37186656 6.97211441 16.65004709 6.49092008 14.92662048 6.01557922 C9.83244653 4.59486988 4.92753151 2.92282728 0 1 C0 0.67 0 0.34 0 0 Z " fill="#11261E" transform="translate(203,477)"/>
<path d="M0 0 C-0.33 0.66 -0.66 1.32 -1 2 C-2.94946289 2.59423828 -2.94946289 2.59423828 -5.47265625 3.0703125 C-6.37177734 3.24433594 -7.27089844 3.41835938 -8.19726562 3.59765625 C-9.14279297 3.77167969 -10.08832031 3.94570313 -11.0625 4.125 C-12.01189453 4.30675781 -12.96128906 4.48851562 -13.93945312 4.67578125 C-16.2916128 5.12493737 -18.64501178 5.56596193 -21 6 C-20.17823927 8.21942612 -20.17823927 8.21942612 -17.8203125 8.78125 C-16.93085938 9.0184375 -16.04140625 9.255625 -15.125 9.5 C-11.84478965 10.37982318 -9.87188369 11.08541088 -7 13 C-2.04406987 22.9581872 -3.81369786 36.55424031 -3.81469727 47.44580078 C-3.81249853 50.12678636 -3.79424271 52.80736737 -3.77539062 55.48828125 C-3.70027521 77.58528897 -3.70027521 77.58528897 -8.5 82.625 C-11 84 -11 84 -13 84 C-13 83.34 -13 82.68 -13 82 C-12.360625 81.71125 -11.72125 81.4225 -11.0625 81.125 C-8.84793921 80.17176549 -8.84793921 80.17176549 -8 78 C-5.36258664 61.0033361 -7.21996697 43.07905051 -7.90820312 25.99755859 C-7.97188375 23.91811512 -7.97547532 21.83630412 -7.93164062 19.75634766 C-7.77921851 16.96292909 -7.77921851 16.96292909 -9.3125 14.75 C-13.50209474 12.0218918 -18.10415184 11.64152493 -23 11 C-22.67 8.69 -22.34 6.38 -22 4 C-19.4604163 3.32438628 -16.91881165 2.65934172 -14.375 2 C-13.66214844 1.80921875 -12.94929688 1.6184375 -12.21484375 1.421875 C-8.04151456 0.34982713 -4.34821249 -0.21946814 0 0 Z " fill="#162E25" transform="translate(517,458)"/>
<path d="M0 0 C0.33 26.73 0.66 53.46 1 81 C0.01 81 -0.98 81 -2 81 C-2 54.93 -2 28.86 -2 2 C-2.99 2.33 -3.98 2.66 -5 3 C-7.06498892 3.08315752 -9.1325789 3.10735878 -11.19921875 3.09765625 C-12.40771484 3.09443359 -13.61621094 3.09121094 -14.86132812 3.08789062 C-16.7552832 3.07532227 -16.7552832 3.07532227 -18.6875 3.0625 C-20.59885742 3.05573242 -20.59885742 3.05573242 -22.54882812 3.04882812 C-25.69926564 3.03702873 -28.84960949 3.02056597 -32 3 C-32 2.67 -32 2.34 -32 2 C-27.25992342 0.85118307 -22.53863211 0.66778721 -17.6875 0.4375 C-16.87087891 0.39431641 -16.05425781 0.35113281 -15.21289062 0.30664062 C-10.12161445 0.05106262 -5.11351649 0 0 0 Z " fill="#122D23" transform="translate(311,385)"/>
<path d="M0 0 C-2.09092467 2.09092467 -4.08663549 3.0376337 -6.74804688 4.25683594 C-18.09584397 9.5056349 -24.992233 16.34641138 -30 28 C-34.75675104 41.55225297 -34.28085204 56.03512775 -28.59375 69.2734375 C-22.84120563 80.04589088 -14.94413222 85.73611898 -3.6640625 89.9921875 C-1.34730707 90.86861404 0.81047442 91.84816427 3 93 C-9.2749118 92.40605265 -17.64495832 86.81672848 -26 78 C-34.09841673 68.17893717 -36.87602849 54.44867705 -35.83203125 41.99658203 C-34.29141895 28.70880098 -29.28322236 16.90672803 -19 8 C-16.67200276 6.35500166 -14.27483905 4.87226136 -11.8125 3.4375 C-11.21824219 3.09050049 -10.62398438 2.74350098 -10.01171875 2.38598633 C-6.54092636 0.48862631 -3.95815552 -0.40997844 0 0 Z " fill="#10231B" transform="translate(424,456)"/>
<path d="M0 0 C1.136694 3.410082 0.88198319 3.87089138 -0.38671875 7.05078125 C-2.18362827 12.11796372 -2.62903448 16.84029591 -2.8125 22.1875 C-2.86603638 23.5628894 -2.86603638 23.5628894 -2.9206543 24.96606445 C-3.27991917 37.57128702 -2.26245553 50.71242499 5.875 60.9375 C10.63912057 65.92512252 14.63838805 67.1802891 21.5 67.375 C28.36161195 67.1802891 32.36087943 65.92512252 37.125 60.9375 C40.52462579 56.76848522 42.2737585 52.0467178 44 47 C45.51945268 51.36102652 44.15408968 53.75566343 42.23046875 57.75390625 C39.20468018 63.27717109 35.20830493 68.09384806 29 70 C21.39087866 70.97975449 14.42705415 70.94041816 7.89453125 66.6015625 C0.14775767 60.0527436 -3.30606702 50.81578408 -5 41 C-6.75805038 12.79359717 -6.75805038 12.79359717 -1 1 C-0.67 0.67 -0.34 0.34 0 0 Z " fill="#10251C" transform="translate(419,473)"/>
<path d="M0 0 C0.33 1.65 0.66 3.3 1 5 C-0.65 4.01 -2.3 3.02 -4 2 C-4 9.59 -4 17.18 -4 25 C-1.525 25.99 -1.525 25.99 1 27 C1.83273437 27.35320313 2.66546875 27.70640625 3.5234375 28.0703125 C16.92156529 33.02578442 33.97616507 33.33073534 47.40234375 28.25390625 C55.31916073 24.43240512 59.31538986 19.97151232 63 12 C63.6015625 13.81640625 63.6015625 13.81640625 64 16 C59.27616959 24.53923189 52.3447927 29.86787348 43.01098633 32.57739258 C37.37763254 33.96333231 31.97548847 34.35120626 26.1875 34.3125 C25.3123877 34.30758545 24.43727539 34.3026709 23.53564453 34.29760742 C13.07367812 34.10902511 2.782641 32.03921645 -6 26 C-7.01973129 22.94080612 -7.11533602 20.87581975 -7.09765625 17.67578125 C-7.09443359 16.64775391 -7.09121094 15.61972656 -7.08789062 14.56054688 C-7.07951172 13.48869141 -7.07113281 12.41683594 -7.0625 11.3125 C-7.05798828 10.22904297 -7.05347656 9.14558594 -7.04882812 8.02929688 C-7.03703743 5.35280915 -7.02058063 2.67643223 -7 0 C-3.86650268 -1.04449911 -3.01031744 -0.93423645 0 0 Z " fill="#11241C" transform="translate(624,517)"/>
<path d="M0 0 C7.33845707 0.27179471 12.02547769 2.84721728 18 7 C18.64195312 7.4434375 19.28390625 7.886875 19.9453125 8.34375 C28.42860257 14.88691543 34.14025738 25.5678343 36 36 C36.99418517 47.14705642 37.56320756 58.96311514 32 69 C31.51402344 69.928125 31.02804687 70.85625 30.52734375 71.8125 C25.68058607 80.24562921 18.34110522 87.66389099 9 91 C6.8359375 90.55859375 6.8359375 90.55859375 5 90 C5.83144531 89.60167969 6.66289062 89.20335937 7.51953125 88.79296875 C8.60621094 88.26316406 9.69289063 87.73335937 10.8125 87.1875 C11.89144531 86.66542969 12.97039062 86.14335938 14.08203125 85.60546875 C16.59719587 84.22162315 18.06351789 83.03422253 20 81 C20.66 81 21.32 81 22 81 C22.40412109 80.13761719 22.40412109 80.13761719 22.81640625 79.2578125 C24.40831783 76.22109667 26.43208738 73.56008617 28.46484375 70.8046875 C32.69311941 63.07974622 33.52842005 55.24608607 33.4375 46.5625 C33.42992676 45.54913574 33.42235352 44.53577148 33.41455078 43.49169922 C33.25698181 36.3619909 32.57670514 30.29544673 29 24 C28.36384766 22.83017578 28.36384766 22.83017578 27.71484375 21.63671875 C20.98137534 10.476792 11.81825996 5.43815168 0 1 C0 0.67 0 0.34 0 0 Z " fill="#0F231A" transform="translate(454,456)"/>
<path d="M0 0 C7.30303079 5.90457808 12.89268406 12.4435399 15.9375 21.375 C16.5253125 22.9528125 16.5253125 22.9528125 17.125 24.5625 C20.55420012 40.65336211 18.92316824 56.31767601 9.9375 70.25 C7.84341398 73.25294062 5.69270603 75.93770236 2.9375 78.375 C2.2775 78.045 1.6175 77.715 0.9375 77.375 C1.38480469 76.90191406 1.83210938 76.42882812 2.29296875 75.94140625 C14.76778614 62.29624352 15.8139568 49.00687741 15.12841797 31.12597656 C14.46815527 21.61211449 10.30587854 13.3939791 3.9375 6.375 C-3.56227257 0.09642934 -11.38651039 -2.91458195 -21 -3.8125 C-22.16885742 -3.9352832 -22.16885742 -3.9352832 -23.36132812 -4.06054688 C-25.26070797 -4.25864171 -27.16148762 -4.44323841 -29.0625 -4.625 C-29.0625 -4.955 -29.0625 -5.285 -29.0625 -5.625 C-18.52429791 -8.10346405 -9.28187285 -4.92507539 0 0 Z " fill="#0F221A" transform="translate(360.0625,459.625)"/>
<path d="M0 0 C-4.62081492 1.61171671 -9.24019063 3.10226802 -13.98046875 4.32421875 C-27.54890411 7.84368079 -41.179918 11.49750951 -49.22265625 23.8828125 C-51.08188237 28.94663439 -50.6306053 34.72250714 -50 40 C-48.6157078 42.69141131 -47.28406558 43.94434098 -45 46 C-45 46.66 -45 47.32 -45 48 C-37.89555394 50.98797708 -31.58113832 51.37557691 -23.9375 51.1875 C-22.88111328 51.17396484 -21.82472656 51.16042969 -20.73632812 51.14648438 C-18.15700191 51.1114709 -15.57878506 51.06236675 -13 51 C-13.495 51.99 -13.495 51.99 -14 53 C-22.7622454 55.53131534 -34.86765087 55.37895723 -43 51 C-48.22522115 47.61897455 -51.29647744 44.11263976 -53 38 C-53.85410387 30.86823265 -53.41975806 24.82930252 -49 19 C-40.1418154 9.14940468 -28.52620443 5.53971354 -16.0625 2.125 C-14.95326172 1.8053125 -13.84402344 1.485625 -12.70117188 1.15625 C-11.63576172 0.85976563 -10.57035156 0.56328125 -9.47265625 0.2578125 C-8.51625244 -0.0088623 -7.55984863 -0.27553711 -6.57446289 -0.55029297 C-3.96738877 -1.00569653 -2.47213587 -0.86275394 0 0 Z " fill="#10241B" transform="translate(753,497)"/>
<path d="M0 0 C0.66 0.33 1.32 0.66 2 1 C1.27103516 2.23943359 1.27103516 2.23943359 0.52734375 3.50390625 C-1.18643888 7.42675906 -1.50030505 10.73302317 -1.4375 14.9375 C-1.42920166 15.64825684 -1.42090332 16.35901367 -1.41235352 17.09130859 C-1.1739088 24.44490965 0.74766267 28.01563308 6 33.0625 C12.1801524 37.9832516 19.49395221 41.03141336 26.7890625 43.91015625 C28.04734863 44.41409912 28.04734863 44.41409912 29.33105469 44.92822266 C30.98851711 45.5857994 32.65311009 46.22576358 34.32519531 46.84521484 C40.62747384 49.34024796 44.9296141 52.8592282 48 59 C48.40141531 64.21839899 47.9955918 67.65156028 45 72 C39.7906935 75.88144406 36.41599858 76.45024551 30 76 C32.71037439 74.19308374 34.44512818 73.49054702 37.5 72.625 C40.18425079 71.73897901 41.86007822 71.11448146 44.0625 69.3125 C45.45139544 65.8865579 45.80907985 62.58033762 45 59 C42.24506761 53.65501896 39.06947068 51.60057649 33.625 49.5 C32.92109131 49.20867188 32.21718262 48.91734375 31.49194336 48.6171875 C29.33489064 47.72638355 27.16961998 46.85968891 25 46 C14.67451205 41.90360012 4.24807173 37.7469919 -2 28 C-4.92849573 20.61509773 -5.72196582 11.15251239 -2.5625 3.6875 C-1 1 -1 1 0 0 Z " fill="#0F221A" transform="translate(622,467)"/>
<path d="M0 0 C0.66 0.33 1.32 0.66 2 1 C-2.1168333 5.44552259 -6.7029126 8.76720211 -11.6875 12.1875 C-13.21343605 13.24175991 -14.73823006 14.29767529 -16.26171875 15.35546875 C-17.26658325 16.04612427 -17.26658325 16.04612427 -18.29174805 16.75073242 C-20.1310989 18.0288612 -20.1310989 18.0288612 -22 20 C0.77 20.33 23.54 20.66 47 21 C42.79165162 23.10417419 40.93563678 23.24841432 36.33544922 23.24291992 C35.34452774 23.24576744 35.34452774 23.24576744 34.33358765 23.24867249 C32.15716562 23.25236744 29.98107969 23.24169621 27.8046875 23.23046875 C26.2906193 23.22927631 24.77655034 23.22882392 23.26248169 23.2290802 C20.09339755 23.22751765 16.92442674 23.21924411 13.75537109 23.20581055 C9.68865356 23.18879201 5.62206018 23.18499717 1.5553112 23.18575573 C-1.56901235 23.18548418 -4.69330864 23.18000584 -7.81762314 23.17275429 C-9.31757272 23.16956785 -10.8175254 23.16760027 -12.31747818 23.16686058 C-14.40978542 23.16469839 -16.50195953 23.1559577 -18.59423828 23.14526367 C-20.38149826 23.13954597 -20.38149826 23.13954597 -22.2048645 23.13371277 C-25 23 -25 23 -27 22 C-27 21.34 -27 20.68 -27 20 C-25.3828125 18.58300781 -25.3828125 18.58300781 -23.125 16.953125 C-21.89330078 16.0559375 -21.89330078 16.0559375 -20.63671875 15.140625 C-19.76660156 14.51671875 -18.89648438 13.8928125 -18 13.25 C-16.31228326 12.02634055 -14.62478124 10.80238488 -12.9375 9.578125 C-12.11378906 8.98322266 -11.29007812 8.38832031 -10.44140625 7.77539062 C-6.93129145 5.22283514 -3.4615353 2.61790693 0 0 Z " fill="#163028" transform="translate(288,528)"/>
<path d="M0 0 C2.39087317 3.58630975 2.20010077 4.99625707 2.08081055 9.24047852 C2.05226486 10.52934464 2.02371918 11.81821075 1.99430847 13.14613342 C1.96652345 14.17985927 1.96652345 14.17985927 1.93817711 15.23446846 C1.85018791 18.9012654 1.82971242 22.56868404 1.79882812 26.23632812 C1.75723761 30.89674774 1.69570253 35.55367693 1.55102539 40.2121582 C0.31592707 56.35717067 0.31592707 56.35717067 4.44909668 71.36566162 C8.36052895 75.36657807 12.8111859 77.1318113 18 79 C19.82361618 80.11606657 21.62527277 81.27132788 23.375 82.5 C24.40753906 83.16515625 24.40753906 83.16515625 25.4609375 83.84375 C27 85 27 85 28 87 C24.57058601 85.70942548 21.50108951 84.22056467 18.375 82.3125 C17.51648438 81.79042969 16.65796875 81.26835937 15.7734375 80.73046875 C11.8983477 78.31263103 8.06861164 75.82627639 4.25 73.3203125 C2.14730554 71.83129876 2.14730554 71.83129876 0 72 C-0.15390143 63.20308071 -0.30208206 54.40608907 -0.4429636 45.60895157 C-0.50856042 41.52407811 -0.57612609 37.43925702 -0.64819336 33.35449219 C-0.71767176 29.4123559 -0.78197564 25.47016603 -0.84269524 21.52788544 C-0.8667677 20.02397346 -0.89270339 18.52009011 -0.92053413 17.01624298 C-0.9592012 14.90963718 -0.99123777 12.80302687 -1.02172852 10.69628906 C-1.04171402 9.49715881 -1.06169952 8.29802856 -1.08229065 7.06256104 C-1.01312497 4.48846414 -0.76902078 2.43900945 0 0 Z " fill="#0D241C" transform="translate(280,411)"/>
<path d="M0 0 C-0.53625 0.2475 -1.0725 0.495 -1.625 0.75 C-5.87358821 2.98609906 -9.31207517 4.96811275 -12 9 C-12.6772783 14.08746258 -12.82467221 18.55682364 -10.25 23.0625 C-6.01302383 26.71100725 -2.73439609 27.39944035 2.75 27.24609375 C6.1046259 26.87918154 8.2587807 25.95801378 11 24 C13.94899302 19.67481024 14.6475474 16.18037921 14 11 C11.31370063 5.29161385 7.58798651 3.30572259 2 1 C2 0.67 2 0.34 2 0 C6.10871679 0.24168922 8.45385242 0.57797687 11.75 3.125 C15.12938536 7.44310352 17.35382833 11.42160196 17.0625 17 C16.21172525 21.75324156 13.63637615 24.93286965 10 28 C5.15150766 30.37266647 0.12152928 31.03074888 -5.08203125 29.3125 C-9.89050964 27.17143356 -12.83614149 24.95884242 -15 20 C-15.87208936 14.50168423 -15.94278291 9.66242331 -12.75 4.9375 C-8.87991061 0.40613483 -5.94760368 -0.27034562 0 0 Z " fill="#13271F" transform="translate(824,410)"/>
<path d="M0 0 C-2.98001814 1.98667876 -5.2854775 2.78884406 -8.6875 3.8125 C-13.35849532 5.32054806 -17.24548499 7.07254887 -21.28125 9.8515625 C-23 11 -23 11 -25.14453125 11.99609375 C-27.80646728 13.43634124 -28.10756665 15.18540251 -29 18 C-29.33 18.99 -29.66 19.98 -30 21 C-30.50266333 26.33393664 -30.50266333 26.33393664 -28.78515625 31.1953125 C-25.98494755 34.02615805 -23.34856125 33.86281185 -19.515625 34.109375 C-16.07634515 33.95984109 -13.81119424 32.9462114 -11 31 C-9.85185003 28.70370006 -9.69230191 26.92301914 -9.4375 24.375 C-9.35371094 23.55773437 -9.26992188 22.74046875 -9.18359375 21.8984375 C-9.09271484 20.95871094 -9.09271484 20.95871094 -9 20 C-8.34 20.33 -7.68 20.66 -7 21 C-6.70554924 26.00566288 -6.88236137 28.99160747 -10 33 C-13.23362848 36.11814175 -16.57775299 37.33666295 -21 38 C-25.34607378 36.64185194 -29.01928736 34.46288674 -32 31 C-33.72908249 25.81275254 -33.64643318 20.80302384 -31.2109375 15.8203125 C-24.58968825 5.86707976 -11.82602297 -0.60183323 0 0 Z " fill="#12281F" transform="translate(735,455)"/>
<path d="M0 0 C0.33 1.32 0.66 2.64 1 4 C-4.625 7.875 -4.625 7.875 -8 9 C-8.33 9.66 -8.66 10.32 -9 11 C13.77 10.505 13.77 10.505 37 10 C34.98452539 7.7369316 34.98452539 7.7369316 31.5 6.5 C28 5 28 5 26 3 C26.33 2.01 26.66 1.02 27 0 C27.495 1.485 27.495 1.485 28 3 C31.7960081 4.89800405 35.91817126 5.87949799 40 7 C40 8.65 40 10.3 40 12 C33.67221796 12.80454422 27.52670607 13.13634502 21.15234375 13.09765625 C20.25504044 13.0962413 19.35773712 13.09482635 18.4332428 13.09336853 C15.60129286 13.0878251 12.76942555 13.07528358 9.9375 13.0625 C8.00325636 13.05747767 6.06901147 13.05291606 4.13476562 13.04882812 C-0.57685417 13.03787429 -5.28841313 13.02064953 -10 13 C-10.56640625 11.09765625 -10.56640625 11.09765625 -11 9 C-9.34472557 6.5657729 -7.60021162 5.80418528 -4.9375 4.5 C-1.76974251 3.18410745 -1.76974251 3.18410745 0 0 Z " fill="#111E1A" transform="translate(811,535)"/>
<path d="M0 0 C9.10822951 4.78567991 12.74277659 13.02258661 16.046875 22.2578125 C17.92454782 28.64558179 17.96745338 34.74320076 17.90625 41.34375 C17.90173828 42.27058594 17.89722656 43.19742188 17.89257812 44.15234375 C17.88086574 46.42454709 17.86446372 48.69661388 17.84375 50.96875 C17.51375 50.96875 17.18375 50.96875 16.84375 50.96875 C16.81796875 49.91558594 16.7921875 48.86242187 16.765625 47.77734375 C16.29949479 34.46621883 15.06295269 17.34677786 5.2265625 7.3203125 C3.80981214 6.14759569 2.33113116 5.05048175 0.84375 3.96875 C0.51375 3.30875 0.18375 2.64875 -0.15625 1.96875 C-6.35438114 -0.03064714 -13.6893449 -0.05915277 -19.59375 2.71875 C-22.50623056 4.36621375 -24.46621028 6.01118049 -26.15625 8.96875 C-26.81625 8.63875 -27.47625 8.30875 -28.15625 7.96875 C-21.03382102 -1.82458984 -11.32889713 -4.85524163 0 0 Z " fill="#0E2119" transform="translate(448.15625,463.03125)"/>
<path d="M0 0 C0.33 0 0.66 0 1 0 C1.01213028 1.0014505 1.01213028 1.0014505 1.02450562 2.02313232 C1.1105015 8.96613759 1.21000322 15.90885571 1.31738281 22.8515625 C1.3556877 25.44331036 1.39053787 28.03511166 1.421875 30.62695312 C1.46749217 34.35045483 1.5254931 38.07358815 1.5859375 41.796875 C1.59748871 42.95741394 1.60903992 44.11795288 1.62094116 45.31365967 C1.64081085 46.39447815 1.66068054 47.47529663 1.68115234 48.58886719 C1.69447601 49.53928894 1.70779968 50.48971069 1.7215271 51.46893311 C2.0161931 54.14718063 2.50881268 55.76378299 4 58 C7.07698717 59.57492053 7.07698717 59.57492053 10.625 60.75 C11.81351563 61.17796875 13.00203125 61.6059375 14.2265625 62.046875 C15.14179687 62.36140625 16.05703125 62.6759375 17 63 C16.01 63.495 16.01 63.495 15 64 C14.34786708 66.02463255 14.34786708 66.02463255 14 68 C9.97982745 68.02485364 5.95968512 68.04293238 1.93945312 68.05493164 C0.5738853 68.05993786 -0.79167724 68.06674482 -2.15722656 68.07543945 C-4.12823118 68.08766831 -6.0992761 68.09272866 -8.0703125 68.09765625 C-9.84559326 68.10551147 -9.84559326 68.10551147 -11.65673828 68.11352539 C-14.86153532 68.00470177 -17.85476612 67.60517483 -21 67 C-21 66.67 -21 66.34 -21 66 C-9.78 66 1.44 66 13 66 C9.95561494 62.95561494 7.68770981 61.81538355 3.83984375 60.16015625 C1.49698219 58.68281043 1.01619163 57.56694868 0 55 C-0.24050903 52.43096924 -0.24050903 52.43096924 -0.22705078 49.49707031 C-0.22689972 48.39623108 -0.22674866 47.29539185 -0.22659302 46.16119385 C-0.21627045 44.97878113 -0.20594788 43.79636841 -0.1953125 42.578125 C-0.1924826 41.36300232 -0.18965271 40.14787964 -0.18673706 38.89593506 C-0.17553954 35.01385665 -0.15043534 31.13200871 -0.125 27.25 C-0.11496966 24.61849291 -0.10584391 21.98698221 -0.09765625 19.35546875 C-0.07560157 12.90356716 -0.04212804 6.45180005 0 0 Z " fill="#020A06" transform="translate(534,480)"/>
<path d="M0 0 C0.86625 0.61875 1.7325 1.2375 2.625 1.875 C5.77827436 3.86039497 8.39976339 5.09994085 12 6 C12.66 5.67 13.32 5.34 14 5 C14 6.98 14 8.96 14 11 C13.34 10.67 12.68 10.34 12 10 C10.5505207 9.88232528 9.09606004 9.82310732 7.64208984 9.79467773 C6.29091568 9.7647599 6.29091568 9.7647599 4.91244507 9.73423767 C3.93844757 9.71752518 2.96445007 9.70081268 1.9609375 9.68359375 C0.96494537 9.66281265 -0.03104675 9.64203156 -1.05722046 9.62062073 C-4.24640854 9.55510958 -7.43568058 9.49623296 -10.625 9.4375 C-12.78386293 9.39431627 -14.9427173 9.35070203 -17.1015625 9.30664062 C-22.4009523 9.19942664 -27.70042606 9.09766315 -33 9 C-32.67 8.01 -32.34 7.02 -32 6 C-29.4375 4.8125 -29.4375 4.8125 -27 4 C-27 4.66 -27 5.32 -27 6 C-16.77 6.33 -6.54 6.66 4 7 C2.68 5.35 1.36 3.7 0 2 C0 1.34 0 0.68 0 0 Z " fill="#275347" transform="translate(595,537)"/>
<path d="M0 0 C6.89122692 0.24611525 11.15375061 2.00877734 16 7 C20.2698027 13.10877713 22.12968716 18.34390771 22.11352539 25.77832031 C22.11344986 26.9392218 22.11337433 28.10012329 22.11329651 29.29620361 C22.10813522 30.54423767 22.10297394 31.79227173 22.09765625 33.078125 C22.0962413 34.35983582 22.09482635 35.64154663 22.09336853 36.96209717 C22.08955901 40.3618364 22.07974214 43.7615326 22.06866455 47.16125488 C22.05841674 50.633539 22.0538637 54.1058301 22.04882812 57.578125 C22.03811841 64.38543429 22.02106084 71.19271508 22 78 C21.67 78 21.34 78 21 78 C20.99120064 77.04065804 20.99120064 77.04065804 20.98222351 76.06193542 C20.9179247 69.36107762 20.83341378 62.660684 20.73754883 55.96020508 C20.70444503 53.46482492 20.6763686 50.96937249 20.65356445 48.47387695 C20.61975036 44.87159644 20.56742068 41.26996953 20.51171875 37.66796875 C20.50532883 36.56543259 20.4989389 35.46289642 20.49235535 34.32695007 C20.29160316 23.57371095 18.74401712 13.58446108 10.75 5.8125 C7.28520563 3.52888553 3.92778248 2.33145169 0 1 C0 0.67 0 0.34 0 0 Z " fill="#091610" transform="translate(573,455)"/>
<path d="M0 0 C5.61 0.33 11.22 0.66 17 1 C17 1.33 17 1.66 17 2 C10.565 2.495 10.565 2.495 4 3 C9.12296839 9.78987784 14.31837632 16.51568104 19.75 23.0625 C20.18481689 23.59770264 20.61963379 24.13290527 21.06762695 24.68432617 C24.01854935 28.19855071 27.10033265 30.60799093 31 33 C31.99 33.66 32.98 34.32 34 35 C28.24210285 34.88004381 25.33482238 33.27271954 21.16796875 29.34765625 C17.18762599 25.03741121 13.71925788 20.33904508 10.22265625 15.63671875 C8.34811863 13.12735369 6.43263527 10.6523102 4.5 8.1875 C3.8709375 7.37667969 3.241875 6.56585938 2.59375 5.73046875 C2.0678125 5.15941406 1.541875 4.58835937 1 4 C0.34 4 -0.32 4 -1 4 C-0.67 2.68 -0.34 1.36 0 0 Z " fill="#132A21" transform="translate(161,440)"/>
<path d="M0 0 C0 0.66 0 1.32 0 2 C-1.86044066 3.43043315 -3.79053641 4.77103536 -5.75 6.0625 C-6.81734375 6.77535156 -7.8846875 7.48820313 -8.984375 8.22265625 C-13.46193618 10.86163337 -16.85548001 11.12732884 -22.0234375 11.1328125 C-23.79412598 11.13571289 -23.79412598 11.13571289 -25.60058594 11.13867188 C-26.84614258 11.13416016 -28.09169922 11.12964844 -29.375 11.125 C-31.26653809 11.12209961 -31.26653809 11.12209961 -33.19628906 11.11914062 C-41.50433517 11.08050853 -49.73194606 10.87032147 -58 10 C-58 9.67 -58 9.34 -58 9 C-56.09492676 9.01740234 -56.09492676 9.01740234 -54.15136719 9.03515625 C-49.38721294 9.06797084 -44.62444619 9.04764743 -39.86035156 9.01220703 C-37.80827471 9.00415335 -35.75608957 9.01003789 -33.70410156 9.03076172 C-21.15947178 9.1468026 -9.4231824 0 0 0 Z " fill="#132820" transform="translate(262,540)"/>
<path d="M0 0 C4.66714289 1.83025211 8.18765077 3.6497537 12 7 C11.67 7.99 11.34 8.98 11 10 C10.34 9.67 9.68 9.34 9 9 C9 8.34 9 7.68 9 7 C8.01 7.495 8.01 7.495 7 8 C7.226875 9.03125 7.45375 10.0625 7.6875 11.125 C8.05564537 15.69000262 7.39230647 17.15278062 5 21 C2.91603541 22.8752899 0.94452605 24.50076105 -1.3125 26.125 C-1.86873047 26.54136719 -2.42496094 26.95773437 -2.99804688 27.38671875 C-4.65017835 28.61379661 -6.32229474 29.80822 -8 31 C-8.54446777 31.40573242 -9.08893555 31.81146484 -9.64990234 32.22949219 C-11.23046875 33.3671875 -11.23046875 33.3671875 -14 35 C-14.99 34.67 -15.98 34.34 -17 34 C-16.51120361 33.66790527 -16.02240723 33.33581055 -15.51879883 32.99365234 C-13.27708619 31.46307626 -11.04484375 29.91920508 -8.8125 28.375 C-8.04357422 27.85292969 -7.27464844 27.33085938 -6.48242188 26.79296875 C-1.89244728 23.60165594 1.75196958 20.57414935 5 16 C5.79953487 11.20279079 4.48352189 8.10736312 2 4 C1.34 3.67 0.68 3.34 0 3 C0 2.01 0 1.02 0 0 Z " fill="#122920" transform="translate(280,504)"/>
<path d="M0 0 C0.33 0 0.66 0 1 0 C1.04980921 5.51349605 1.08591163 11.02685821 1.10986328 16.54052734 C1.11985894 18.41229538 1.13345997 20.28404805 1.15087891 22.15576172 C1.17541268 24.86169246 1.18654768 27.56741499 1.1953125 30.2734375 C1.20563507 31.09677582 1.21595764 31.92011414 1.22659302 32.7684021 C1.22940453 47.65912524 1.22940453 47.65912524 -3.5 52.625 C-6 54 -6 54 -8 54 C-8 53.34 -8 52.68 -8 52 C-7.360625 51.71125 -6.72125 51.4225 -6.0625 51.125 C-3.84793921 50.17176549 -3.84793921 50.17176549 -3 48 C-1.68759003 39.39642356 -1.89463824 30.67478466 -2 22 C-1.67 22 -1.34 22 -1 22 C-0.67 14.74 -0.34 7.48 0 0 Z " fill="#193A2F" transform="translate(512,488)"/>
<path d="M0 0 C1.01771484 0.00902344 2.03542969 0.01804687 3.08398438 0.02734375 C5.57707156 0.05075302 8.06965859 0.083543 10.5625 0.125 C10.5625 0.455 10.5625 0.785 10.5625 1.125 C9.93384033 1.15940186 9.30518066 1.19380371 8.6574707 1.22924805 C-12.29422743 2.46530817 -27.54243522 6.64282987 -43.4375 21.125 C-38.20879511 9.8857278 -26.19570977 5.01241933 -15.15234375 0.90234375 C-10.06730274 -0.16171846 -5.17784257 -0.08758875 0 0 Z " fill="#0C1E17" transform="translate(194.4375,376.875)"/>
<path d="M0 0 C0.33 0.99 0.66 1.98 1 3 C0.43410156 3.33773437 -0.13179687 3.67546875 -0.71484375 4.0234375 C-1.44832031 4.46945312 -2.18179688 4.91546875 -2.9375 5.375 C-3.66839844 5.81585937 -4.39929688 6.25671875 -5.15234375 6.7109375 C-7.13772272 7.8773984 -7.13772272 7.8773984 -8 10 C7.18 10 22.36 10 38 10 C38 10.33 38 10.66 38 11 C22.3686158 12.41873179 6.67823776 12.09599524 -9 12 C-9.33 10.35 -9.66 8.7 -10 7 C-8.9171875 6.38125 -8.9171875 6.38125 -7.8125 5.75 C-5.02030138 4.01263197 -2.52987415 2.09618143 0 0 Z " fill="#0A130F" transform="translate(570,536)"/>
<path d="M0 0 C0 0.33 0 0.66 0 1 C-1.54107422 1.11214844 -1.54107422 1.11214844 -3.11328125 1.2265625 C-17.45350641 2.49172335 -26.25110138 7.16789043 -36 18 C-36.66 17.67 -37.32 17.34 -38 17 C-38 13.04 -38 9.08 -38 5 C-37.67 5 -37.34 5 -37 5 C-36.67 8.3 -36.34 11.6 -36 15 C-35.2575 13.989375 -34.515 12.97875 -33.75 11.9375 C-28.11237463 5.38026198 -19.72155313 0.6033901 -11.1796875 -0.8671875 C-7.35244244 -1.10038881 -3.78208883 -0.60033156 0 0 Z " fill="#0F221A" transform="translate(572,454)"/>
<path d="M0 0 C3.71717362 3.71717362 5.88965773 7.51729887 6.125 12.8125 C6.08375 13.534375 6.0425 14.25625 6 15 C5.34 14.67 4.68 14.34 4 14 C2.99950801 10.74840105 2.1264523 7.47419611 1.25 4.1875 C0.14804575 1.74192128 0.14804575 1.74192128 -2.67578125 0.88671875 C-8.57609023 -0.6871592 -15.52995834 -1.33911004 -21.328125 0.8984375 C-22.93631542 1.85118897 -24.47666302 2.91673815 -26 4 C-26.66 4 -27.32 4 -28 4 C-28 4.66 -28 5.32 -28 6 C-28.66 6 -29.32 6 -30 6 C-28.91154724 2.73464172 -28.38760316 2.25986858 -25.6875 0.375 C-25.09324219 -0.05039062 -24.49898437 -0.47578125 -23.88671875 -0.9140625 C-16.8877958 -4.94242809 -6.81713888 -3.96088393 0 0 Z " fill="#142E24" transform="translate(566,473)"/>
<path d="M0 0 C0.71478516 0.03544922 1.42957031 0.07089844 2.16601562 0.10742188 C7.44049453 0.44049453 7.44049453 0.44049453 9.6875 2.6875 C7.85638672 2.63529297 7.85638672 2.63529297 5.98828125 2.58203125 C-8.48782766 2.29006124 -20.0305656 3.36667629 -32.3125 11.6875 C-33.3025 12.1825 -33.3025 12.1825 -34.3125 12.6875 C-31.98047649 7.16798707 -27.39638061 4.97069005 -22.03125 2.73828125 C-14.68469905 0.15944059 -7.72444932 -0.52259944 0 0 Z " fill="#11251D" transform="translate(658.3125,453.3125)"/>
<path d="M0 0 C5.15720319 0.56503222 9.17591742 3.08361696 13.625 5.5625 C15.13484732 6.40286266 16.64775471 7.23775734 18.1640625 8.06640625 C19.16107178 8.6224353 19.16107178 8.6224353 20.17822266 9.18969727 C22.12453829 10.20319988 22.12453829 10.20319988 25 10 C26.65501274 8.30555091 26.65501274 8.30555091 28.125 6.125 C28.64320313 5.40570313 29.16140625 4.68640625 29.6953125 3.9453125 C31.03299829 2.0396601 31.03299829 2.0396601 32 0 C32.99 0.33 33.98 0.66 35 1 C33.59854546 3.01234498 32.18072859 5.00864109 30.75 7 C30.35425781 7.57234375 29.95851563 8.1446875 29.55078125 8.734375 C28.359375 10.375 28.359375 10.375 26 13 C21.74089372 13 20.41454819 12.39416643 16.796875 10.375 C15.8171875 9.83359375 14.8375 9.2921875 13.828125 8.734375 C12.81234375 8.16203125 11.7965625 7.5896875 10.75 7 C9.71875 6.42765625 8.6875 5.8553125 7.625 5.265625 C5.07905139 3.8512091 2.53771164 2.42912568 0 1 C0 0.67 0 0.34 0 0 Z " fill="#0F271E" transform="translate(230,407)"/>
<path d="M0 0 C1.0209375 0.6496875 1.0209375 0.6496875 2.0625 1.3125 C5.3046978 3.17503916 8.54486289 4.57729648 12 6 C11.67 6.66 11.34 7.32 11 8 C1.76 8 -7.48 8 -17 8 C-12.62703266 5.81351633 -9.4791784 5.76637929 -4.75 5.875 C-4.00492188 5.88402344 -3.25984375 5.89304687 -2.4921875 5.90234375 C-0.66131941 5.92581642 1.16938238 5.96168475 3 6 C2.505 5.38125 2.01 4.7625 1.5 4.125 C0 2 0 2 0 0 Z " fill="#275248" transform="translate(837,538)"/>
<path d="M0 0 C4.49861718 2.50326278 7.03844535 6.15820284 9.75 10.4375 C10.17667969 11.07558594 10.60335937 11.71367187 11.04296875 12.37109375 C13.85906 16.84031707 13.85906 16.84031707 13.34765625 19.640625 C13.15042969 20.23359375 12.95320312 20.8265625 12.75 21.4375 C12.32589844 20.56867188 11.90179687 19.69984375 11.46484375 18.8046875 C7.50146889 11.0173092 4.02487251 5.13627198 -3.9375 1.0625 C-9.0287971 0.10187791 -14.08565316 0.28708213 -19.25 0.4375 C-14.26002592 -4.55247408 -5.93915192 -2.5862203 0 0 Z " fill="#0F231A" transform="translate(664.25,463.5625)"/>
<path d="M0 0 C0.66 0.33 1.32 0.66 2 1 C-2.1168333 5.44552259 -6.7029126 8.76720211 -11.6875 12.1875 C-13.21343605 13.24175991 -14.73823006 14.29767529 -16.26171875 15.35546875 C-17.26658325 16.04612427 -17.26658325 16.04612427 -18.29174805 16.75073242 C-20.1310989 18.0288612 -20.1310989 18.0288612 -22 20 C-21.34 20.66 -20.68 21.32 -20 22 C-24.75 23.125 -24.75 23.125 -27 22 C-27 21.34 -27 20.68 -27 20 C-25.3828125 18.58300781 -25.3828125 18.58300781 -23.125 16.953125 C-21.89330078 16.0559375 -21.89330078 16.0559375 -20.63671875 15.140625 C-19.76660156 14.51671875 -18.89648438 13.8928125 -18 13.25 C-16.31228326 12.02634055 -14.62478124 10.80238488 -12.9375 9.578125 C-12.11378906 8.98322266 -11.29007812 8.38832031 -10.44140625 7.77539062 C-6.93129145 5.22283514 -3.4615353 2.61790693 0 0 Z " fill="#0F2119" transform="translate(288,528)"/>
<path d="M0 0 C0.33 0 0.66 0 1 0 C1.79889522 10.03057331 -0.46243839 20.11646982 -7 28 C-9.94449243 30.91266008 -12.73272462 33.50762207 -17 34 C-17 33.34 -17 32.68 -17 32 C-15.55181887 31.05699834 -14.10324164 30.11459753 -12.65234375 29.17578125 C-6.34210051 24.6855136 -3.98850037 18.23454406 -2 11 C-1.50570679 7.98970979 -1.24172637 5.04575223 -1 2 C-0.67 1.34 -0.34 0.68 0 0 Z " fill="#12281F" transform="translate(353,507)"/>
<path d="M0 0 C4.88813328 0.56630812 8.61672582 2.03913802 13 4.25 C14.175625 4.83265625 15.35125 5.4153125 16.5625 6.015625 C22.81525514 9.62517002 26.99108163 13.38037958 30 20 C29.59765625 22.21484375 29.59765625 22.21484375 29 24 C27.77929688 21.16796875 27.77929688 21.16796875 26.55859375 18.3359375 C22.28988695 11.93822655 16.01345091 8.71915987 9.125 5.75 C1.12178801 2.24357602 1.12178801 2.24357602 0 0 Z " fill="#11261D" transform="translate(658,491)"/>
<path d="M0 0 C-2.79823575 2.27956963 -5.28283023 3.58769728 -8.6875 4.75 C-15.53417046 7.38566518 -20.66468938 11.66468938 -25.8125 16.8125 C-27.82818947 18.82818947 -29.3851706 19.93469913 -32 21 C-27.61192875 11.3630397 -17.40981902 5.38054902 -8.125 1.0625 C-5.17095384 0.0581243 -3.08681957 -0.28061996 0 0 Z " fill="#12271E" transform="translate(238,355)"/>
<path d="M0 0 C0.33 1.65 0.66 3.3 1 5 C-0.65 4.01 -2.3 3.02 -4 2 C-4 9.59 -4 17.18 -4 25 C-4.99 25 -5.98 25 -7 25 C-7 16.75 -7 8.5 -7 0 C-3.86650268 -1.04449911 -3.01031744 -0.93423645 0 0 Z " fill="#20453A" transform="translate(624,517)"/>
<path d="M0 0 C15.51 0 31.02 0 47 0 C47 0.33 47 0.66 47 1 C32.48 1.33 17.96 1.66 3 2 C5.31 3.98 7.62 5.96 10 8 C9.67 8.66 9.34 9.32 9 10 C7.49410612 8.71520959 5.99542625 7.42195918 4.5 6.125 C3.6646875 5.40570313 2.829375 4.68640625 1.96875 3.9453125 C1.3190625 3.30335938 0.669375 2.66140625 0 2 C0 1.34 0 0.68 0 0 Z " fill="#000100" transform="translate(218,396)"/>
<path d="M0 0 C3.3 0.99 6.6 1.98 10 3 C9.34 3.33 8.68 3.66 8 4 C7.34786708 6.02463255 7.34786708 6.02463255 7 8 C2.97982745 8.02485364 -1.04031488 8.04293238 -5.06054688 8.05493164 C-6.4261147 8.05993786 -7.79167724 8.06674482 -9.15722656 8.07543945 C-11.12823118 8.08766831 -13.0992761 8.09272866 -15.0703125 8.09765625 C-16.84559326 8.10551147 -16.84559326 8.10551147 -18.65673828 8.11352539 C-21.86153532 8.00470177 -24.85476612 7.60517483 -28 7 C-28 6.67 -28 6.34 -28 6 C-16.78 6 -5.56 6 6 6 C3.2981424 2.8509288 3.2981424 2.8509288 0 2 C0 1.34 0 0.68 0 0 Z " fill="#0E1B16" transform="translate(541,540)"/>
<path d="M0 0 C5.67853635 1.41963409 9.53174216 4.39363961 14 8 C12.68246445 12.62509876 10.84885893 16.0101877 8 19.875 C7.29875 20.84179688 6.5975 21.80859375 5.875 22.8046875 C5.25625 23.52914063 4.6375 24.25359375 4 25 C3.34 25 2.68 25 2 25 C3.82454363 21.07500614 6.28300019 17.78050326 8.85546875 14.31640625 C10.19716516 12.04471614 10.19716516 12.04471614 9.9609375 9.41796875 C8.71875175 6.29230624 7.3017908 5.45333412 4.4375 3.75 C2.94880654 2.84888758 1.46677564 1.93636586 0 1 C0 0.67 0 0.34 0 0 Z " fill="#213627" transform="translate(278,358)"/>
<path d="M0 0 C6.66025513 -0.72394078 11.44921065 1.3421487 17 5 C20.46206956 8.18481964 23.16577678 11.65003025 25 16 C25.0777346 18.33203812 25.08967728 20.66839059 25 23 C24.57074219 22.13761719 24.57074219 22.13761719 24.1328125 21.2578125 C23.40683342 19.8108611 22.6731345 18.36774192 21.9296875 16.9296875 C21.58164062 16.25164062 21.23359375 15.57359375 20.875 14.875 C20.52179687 14.19179688 20.16859375 13.50859375 19.8046875 12.8046875 C19 11 19 11 19 9 C18.12794922 8.566875 18.12794922 8.566875 17.23828125 8.125 C15.85422878 7.42935059 14.47538498 6.72308981 13.10546875 6 C8.79592337 3.75306799 4.71564684 2.17891171 0 1 C0 0.67 0 0.34 0 0 Z " fill="#0E2119" transform="translate(754,455)"/>
<path d="M0 0 C0.66 0.33 1.32 0.66 2 1 C1.484375 1.66 0.96875 2.32 0.4375 3 C-1.48850592 7.01949061 -1.21272443 9.77696669 0 14 C3.00921472 19.88164696 9.17675413 21.64058142 15 24 C15 24.66 15 25.32 15 26 C11.10254545 25.41328641 8.25931473 24.25781975 4.875 22.25 C4.02679687 21.76015625 3.17859375 21.2703125 2.3046875 20.765625 C-1.06199889 18.18640085 -2.7367912 15.67473047 -3.3984375 11.46484375 C-3.39070312 10.63082031 -3.38296875 9.79679687 -3.375 8.9375 C-3.38273438 8.10089844 -3.39046875 7.26429688 -3.3984375 6.40234375 C-2.92622788 3.5551975 -1.87743182 2.15060312 0 0 Z " fill="#10231A" transform="translate(642,465)"/>
<path d="M0 0 C0.99 0.33 1.98 0.66 3 1 C3 1.66 3 2.32 3 3 C3.66 3 4.32 3 5 3 C5.4125 3.763125 5.825 4.52625 6.25 5.3125 C8.38615181 8.59301885 10.44579683 9.49933644 14 11 C14 11.33 14 11.66 14 12 C11.8125 12.3125 11.8125 12.3125 9 12 C5.39570039 9.06626776 3.39281055 6.43166995 2 2 C1.13375 2.763125 0.2675 3.52625 -0.625 4.3125 C-3.56780391 6.74864191 -6.41459315 8.59701471 -10 10 C-12.1796875 9.5703125 -12.1796875 9.5703125 -14 9 C-13.24074219 8.60167969 -12.48148438 8.20335937 -11.69921875 7.79296875 C-10.70535156 7.26316406 -9.71148438 6.73335937 -8.6875 6.1875 C-7.70136719 5.66542969 -6.71523438 5.14335938 -5.69921875 4.60546875 C-3.38334932 3.2280124 -1.76388999 2.00469409 0 0 Z " fill="#132920" transform="translate(756,537)"/>
<path d="M0 0 C2.26535163 2.19691201 4.29089434 4.51622057 6.3125 6.9375 C11.70670671 13.08621997 17.28334479 15.73644781 25 18 C25 18.33 25 18.66 25 19 C16.25877963 18.52320616 9.97182831 15.46032142 4 9 C1.44554394 6.067106 0.53545123 3.85524885 0 0 Z " fill="#0E2018" transform="translate(626,524)"/>
<path d="M0 0 C0.33 0 0.66 0 1 0 C1.01981934 0.56920166 1.03963867 1.13840332 1.06005859 1.72485352 C1.15611758 4.33781712 1.26546407 6.95006802 1.375 9.5625 C1.4059375 10.45775391 1.436875 11.35300781 1.46875 12.27539062 C1.69872217 17.50725745 2.32404444 22.03344876 4 27 C7.3 27.66 10.6 28.32 14 29 C10.50875983 31.32749345 9.10777749 31.50299316 5 31 C2.69724444 29.1329009 1.32176129 27.64352259 0 25 C-0.084915 23.1136088 -0.107193 21.22421485 -0.09765625 19.3359375 C-0.09443359 18.21445312 -0.09121094 17.09296875 -0.08789062 15.9375 C-0.07951172 14.761875 -0.07113281 13.58625 -0.0625 12.375 C-0.05798828 11.19164062 -0.05347656 10.00828125 -0.04882812 8.7890625 C-0.03701467 5.85932493 -0.02054258 2.92968728 0 0 Z " fill="#0A1A12" transform="translate(779,508)"/>
<path d="M0 0 C0.66 0 1.32 0 2 0 C2.19789024 3.22861733 2.38146345 6.45789727 2.5625 9.6875 C2.61857422 10.59951172 2.67464844 11.51152344 2.73242188 12.45117188 C2.78076172 13.33740234 2.82910156 14.22363281 2.87890625 15.13671875 C2.94960327 16.35427856 2.94960327 16.35427856 3.02172852 17.59643555 C2.99838228 20.1789485 2.5804792 22.48849909 2 25 C1.34 25 0.68 25 0 25 C0 16.75 0 8.5 0 0 Z " fill="#132F26" transform="translate(309,475)"/>
<path d="M0 0 C-1.49018223 2.98036446 -3.9035664 3.09323027 -6.8828125 4.1640625 C-13.12179129 6.62742313 -17.47608468 11.23516611 -22 16 C-22.33 15.34 -22.66 14.68 -23 14 C-16.90216104 6.32053406 -10.36230349 -0.28006226 0 0 Z " fill="#11251D" transform="translate(130,410)"/>
<path d="M0 0 C0 0.33 0 0.66 0 1 C-9.24 1 -18.48 1 -28 1 C-27.67 0.34 -27.34 -0.32 -27 -1 C-18.36348383 -3.01475934 -8.34322567 -3.17837168 0 0 Z " fill="#162C23" transform="translate(267,354)"/>
<path d="M0 0 C0.33 0.99 0.66 1.98 1 3 C14.86 3 28.72 3 43 3 C43 3.33 43 3.66 43 4 C28.48 4.33 13.96 4.66 -1 5 C-0.67 3.35 -0.34 1.7 0 0 Z " fill="#235448" transform="translate(106,429)"/>
<path d="M0 0 C0.66 0 1.32 0 2 0 C2.72526532 7.84402334 3.21074074 15.19744856 2 23 C-0.13604308 19.79593538 -0.24208908 19.00399253 -0.1953125 15.33203125 C-0.18564453 13.99301758 -0.18564453 13.99301758 -0.17578125 12.62695312 C-0.15902344 11.69818359 -0.14226562 10.76941406 -0.125 9.8125 C-0.11597656 8.87212891 -0.10695313 7.93175781 -0.09765625 6.96289062 C-0.07409056 4.64167032 -0.04119116 2.32096356 0 0 Z " fill="#142B22" transform="translate(376,488)"/>
<path d="M0 0 C0.66 0 1.32 0 2 0 C1 3 1 3 -1.1796875 4.3515625 C-2.51386719 4.98191406 -2.51386719 4.98191406 -3.875 5.625 C-4.75929688 6.05039062 -5.64359375 6.47578125 -6.5546875 6.9140625 C-9.92990079 8.41295914 -12.52374424 9.12256157 -16.1875 9.0625 C-18.0746875 9.0315625 -18.0746875 9.0315625 -20 9 C-20.33 8.34 -20.66 7.68 -21 7 C-20.2265625 6.90203125 -19.453125 6.8040625 -18.65625 6.703125 C-8.53039598 5.32736993 -8.53039598 5.32736993 0 0 Z " fill="#122820" transform="translate(792,542)"/>
<path d="M0 0 C1.11375 1.175625 1.11375 1.175625 2.25 2.375 C6.6586181 6.58322637 9.67875424 7.26072525 15.75 7.625 C16.92046875 7.69976563 18.0909375 7.77453125 19.296875 7.8515625 C20.63492188 7.92503906 20.63492188 7.92503906 22 8 C17.73445129 10.84369914 14.00796428 10.62978945 9 10 C4.96825661 8.50648922 2.41661972 6.62492958 0 3 C0 2.01 0 1.02 0 0 Z " fill="#0F241C" transform="translate(724,528)"/>
<path d="M0 0 C-0.53625 0.2475 -1.0725 0.495 -1.625 0.75 C-5.87358821 2.98609906 -9.31207517 4.96811275 -12 9 C-12.66158043 11.04584079 -12.66158043 11.04584079 -13.125 13.1875 C-13.41375 14.445625 -13.7025 15.70375 -14 17 C-14.33 17 -14.66 17 -15 17 C-15.51263034 11.15601414 -15.09321126 8.00642785 -11.35546875 3.41015625 C-7.8780537 -0.20755796 -4.88899998 -0.22222727 0 0 Z " fill="#0F2119" transform="translate(824,410)"/>
<path d="M0 0 C7.61973555 2.8710075 14.58559059 6.86366933 20 13 C12.38026445 10.1289925 5.41440941 6.13633067 0 0 Z " fill="#12251C" transform="translate(288,485)"/>
<path d="M0 0 C0.33 0.99 0.66 1.98 1 3 C0.43410156 3.33773437 -0.13179687 3.67546875 -0.71484375 4.0234375 C-1.44832031 4.46945312 -2.18179688 4.91546875 -2.9375 5.375 C-3.66839844 5.81585937 -4.39929688 6.25671875 -5.15234375 6.7109375 C-7.13772272 7.8773984 -7.13772272 7.8773984 -8 10 C-6.68 10.33 -5.36 10.66 -4 11 C-5.65 11.33 -7.3 11.66 -9 12 C-9.33 10.35 -9.66 8.7 -10 7 C-8.9171875 6.38125 -8.9171875 6.38125 -7.8125 5.75 C-5.02030138 4.01263197 -2.52987415 2.09618143 0 0 Z " fill="#11261E" transform="translate(570,536)"/>
<path d="M0 0 C0.89203125 0.00902344 1.7840625 0.01804687 2.703125 0.02734375 C3.37859375 0.03894531 4.0540625 0.05054688 4.75 0.0625 C4.75 0.3925 4.75 0.7225 4.75 1.0625 C4.03714844 1.16046875 3.32429687 1.2584375 2.58984375 1.359375 C-3.60977777 2.32728361 -7.9750418 3.69550541 -13.25 7.0625 C-13.91 7.0625 -14.57 7.0625 -15.25 7.0625 C-15.25 7.7225 -15.25 8.3825 -15.25 9.0625 C-15.91 9.0625 -16.57 9.0625 -17.25 9.0625 C-16.16154724 5.79714172 -15.63760316 5.32236858 -12.9375 3.4375 C-12.34324219 3.01210938 -11.74898437 2.58671875 -11.13671875 2.1484375 C-7.48393554 0.04600741 -4.15656953 -0.0546917 0 0 Z " fill="#0E231B" transform="translate(553.25,469.9375)"/>
<path d="M0 0 C0 5.28 0 10.56 0 16 C-0.33 16 -0.66 16 -1 16 C-1.33 11.05 -1.66 6.1 -2 1 C-4.64 1.33 -7.28 1.66 -10 2 C-9.67 1.34 -9.34 0.68 -9 0 C-5.35541013 -1.08352672 -3.82056178 -0.95514044 0 0 Z " fill="#1C3B31" transform="translate(536,454)"/>
<path d="M0 0 C0 0.66 0 1.32 0 2 C-1.98 2.33 -3.96 2.66 -6 3 C-6 3.66 -6 4.32 -6 5 C-2.04 5 1.92 5 6 5 C6 5.33 6 5.66 6 6 C0.72 6 -4.56 6 -10 6 C-10 5.01 -10 4.02 -10 3 C-8.70990357 2.49596232 -7.41786211 1.99690074 -6.125 1.5 C-5.04605469 1.08234375 -5.04605469 1.08234375 -3.9453125 0.65625 C-2 0 -2 0 0 0 Z " fill="#1E3C33" transform="translate(210,545)"/>
<path d="M0 0 C-1.22934015 3.68802044 -2.93859378 4.72356973 -6 7 C-5.34 7.66 -4.68 8.32 -4 9 C-8.75 10.125 -8.75 10.125 -11 9 C-11 8.34 -11 7.68 -11 7 C-9.1015625 5.2734375 -9.1015625 5.2734375 -6.625 3.375 C-5.40683594 2.42753906 -5.40683594 2.42753906 -4.1640625 1.4609375 C-2 0 -2 0 0 0 Z " fill="#162E25" transform="translate(272,541)"/>
<path d="M0 0 C2.0625 0.4375 2.0625 0.4375 4 1 C4.33 2.65 4.66 4.3 5 6 C3.35 5.01 1.7 4.02 0 3 C0 8.61 0 14.22 0 20 C-0.33 20 -0.66 20 -1 20 C-1.02888514 16.85418577 -1.04675923 13.70840531 -1.0625 10.5625 C-1.07087891 9.66466797 -1.07925781 8.76683594 -1.08789062 7.84179688 C-1.09111328 6.98779297 -1.09433594 6.13378906 -1.09765625 5.25390625 C-1.10551147 4.06776733 -1.10551147 4.06776733 -1.11352539 2.85766602 C-1 1 -1 1 0 0 Z " fill="#0B1C14" transform="translate(620,516)"/>
<path d="M0 0 C5.61 0.33 11.22 0.66 17 1 C17 1.33 17 1.66 17 2 C10.565 2.495 10.565 2.495 4 3 C3.67 3.99 3.34 4.98 3 6 C1.68 5.34 0.36 4.68 -1 4 C-0.67 2.68 -0.34 1.36 0 0 Z " fill="#19382E" transform="translate(161,440)"/>
<path d="M0 0 C0.33 1.32 0.66 2.64 1 4 C-4.625 7.875 -4.625 7.875 -8 9 C-8.33 9.99 -8.66 10.98 -9 12 C-8.34 12.33 -7.68 12.66 -7 13 C-8.32 12.67 -9.64 12.34 -11 12 C-11 9.75 -11 9.75 -10 7 C-8.03332609 5.76380497 -6.05803117 4.87316705 -3.91015625 3.9921875 C-1.66572017 3.02149597 -1.66572017 3.02149597 0 0 Z " fill="#152B23" transform="translate(811,535)"/>
<path d="M0 0 C10.18018456 0.64319249 10.18018456 0.64319249 14 4 C15.3125 7.1875 15.3125 7.1875 16 10 C15.34 10 14.68 10 14 10 C13.58105469 9.22269531 13.16210938 8.44539063 12.73046875 7.64453125 C10.57957638 4.3575016 9.00561157 3.86060603 5.3125 2.6875 C4.31863281 2.36136719 3.32476562 2.03523438 2.30078125 1.69921875 C1.54152344 1.46847656 0.78226562 1.23773438 0 1 C0 0.67 0 0.34 0 0 Z " fill="#0F211A" transform="translate(496,467)"/>
<path d="M0 0 C2.58585205 -0.16236745 5.16151954 -0.28095486 7.75 -0.375 C8.84441406 -0.45041016 8.84441406 -0.45041016 9.9609375 -0.52734375 C12.109375 -0.5859375 12.109375 -0.5859375 16 0 C18.515625 3.0234375 18.515625 3.0234375 20 6 C19.01 6 18.02 6 17 6 C16.34 5.01 15.68 4.02 15 3 C12.40729301 2.45524022 9.99548055 2.07599851 7.375 1.8125 C6.66859375 1.73064453 5.9621875 1.64878906 5.234375 1.56445312 C3.4909317 1.36419275 1.74559914 1.18050599 0 1 C0 0.67 0 0.34 0 0 Z " fill="#0C1B15" transform="translate(169,442)"/>
<path d="M0 0 C0.66 0.33 1.32 0.66 2 1 C4.54615009 1.23172827 7.07396225 1.41894529 9.625 1.5625 C10.33140625 1.60568359 11.0378125 1.64886719 11.765625 1.69335938 C13.51018537 1.79944751 15.25506697 1.90022889 17 2 C17 2.33 17 2.66 17 3 C16.25234375 3.06058594 15.5046875 3.12117188 14.734375 3.18359375 C13.74953125 3.26738281 12.7646875 3.35117187 11.75 3.4375 C10.77546875 3.51871094 9.8009375 3.59992188 8.796875 3.68359375 C6.07279594 3.92175979 6.07279594 3.92175979 3.78125 4.59375 C1.30865724 5.15767467 0.10806629 4.27989739 -2 3 C-1.34 2.01 -0.68 1.02 0 0 Z " fill="#8D863E" transform="translate(289,378)"/>
<path d="M0 0 C0.33 0 0.66 0 1 0 C1.22644569 3.24900334 1.42797517 6.49909039 1.625 9.75 C1.68945312 10.67039062 1.75390625 11.59078125 1.8203125 12.5390625 C1.871875 13.42851562 1.9234375 14.31796875 1.9765625 15.234375 C2.02893066 16.05131836 2.08129883 16.86826172 2.13525391 17.70996094 C1.98414765 20.26840268 1.28926961 21.80868168 0 24 C-1.38489368 19.04515817 -0.89120615 14.25410852 -0.5625 9.1875 C-0.51029297 8.30384766 -0.45808594 7.42019531 -0.40429688 6.50976562 C-0.27525381 4.33949592 -0.13840044 2.16969307 0 0 Z " fill="#1D4036" transform="translate(464,497)"/>
<path d="M0 0 C1.32 0.33 2.64 0.66 4 1 C3.34 1 2.68 1 2 1 C2 1.99 2 2.98 2 4 C4.97 4 7.94 4 11 4 C11 4.33 11 4.66 11 5 C9.02 5 7.04 5 5 5 C4.67 5.66 4.34 6.32 4 7 C2.68 6.67 1.36 6.34 0 6 C0 5.01 0 4.02 0 3 C-0.66 2.67 -1.32 2.34 -2 2 C-1.34 2 -0.68 2 0 2 C0 1.34 0 0.68 0 0 Z " fill="#12251E" transform="translate(499,542)"/>
<path d="M0 0 C0.66 0 1.32 0 2 0 C0.63629701 2.99220268 -0.94908083 5.29026529 -3.125 7.75 C-3.93324219 8.67039062 -3.93324219 8.67039062 -4.7578125 9.609375 C-5.16773438 10.06828125 -5.57765625 10.5271875 -6 11 C-6.99 10.67 -7.98 10.34 -9 10 C-7.5484451 8.32742645 -6.08855591 6.66208242 -4.625 5 C-3.81289063 4.071875 -3.00078125 3.14375 -2.1640625 2.1875 C-1.44992187 1.465625 -0.73578125 0.74375 0 0 Z " fill="#132A22" transform="translate(405,464)"/>
<path d="M0 0 C2.31 0 4.62 0 7 0 C6.34 0.66 5.68 1.32 5 2 C4.34 2 3.68 2 3 2 C5.31 3.98 7.62 5.96 10 8 C9.67 8.66 9.34 9.32 9 10 C7.49410612 8.71520959 5.99542625 7.42195918 4.5 6.125 C3.6646875 5.40570313 2.829375 4.68640625 1.96875 3.9453125 C1.3190625 3.30335938 0.669375 2.66140625 0 2 C0 1.34 0 0.68 0 0 Z " fill="#0C1E17" transform="translate(218,396)"/>
<path d="M0 0 C1.98 0 3.96 0 6 0 C5.58578031 4.83256305 3.53586014 6.82679218 0 10 C0.309375 9.236875 0.61875 8.47375 0.9375 7.6875 C1.67893593 5.81210323 2.36228217 3.91315348 3 2 C2.01 2.33 1.02 2.66 0 3 C0 2.01 0 1.02 0 0 Z " fill="#11281F" transform="translate(265,396)"/>
<path d="M0 0 C-0.33 0.99 -0.66 1.98 -1 3 C-4.63 3 -8.26 3 -12 3 C-7.97869817 0.31913211 -4.73968522 -1.57989507 0 0 Z " fill="#26574A" transform="translate(216,546)"/>
<path d="M0 0 C5.80205656 5.64524422 5.80205656 5.64524422 8 9 C8 9.66 8 10.32 8 11 C6.68 11 5.36 11 4 11 C3.8453125 10.13375 3.8453125 10.13375 3.6875 9.25 C3.11076107 6.90012053 3.11076107 6.90012053 1.4375 4.9375 C0 3 0 3 0 0 Z " fill="#132D24" transform="translate(223,457)"/>
<path d="M0 0 C0.66 0.33 1.32 0.66 2 1 C-0.51407619 5.28324091 -2.12314139 7.64531705 -7 9 C-7 6 -7 6 -5.46875 4.39453125 C-4.49421875 3.61142578 -4.49421875 3.61142578 -3.5 2.8125 C-2.8503125 2.28269531 -2.200625 1.75289063 -1.53125 1.20703125 C-1.0259375 0.80871094 -0.520625 0.41039062 0 0 Z " fill="#E4B526" transform="translate(306,361)"/>
<path d="M0 0 C0.66 0.33 1.32 0.66 2 1 C2 2.65 2 4.3 2 6 C1.01 6.33 0.02 6.66 -1 7 C-1 6.34 -1 5.68 -1 5 C-3.475 4.01 -3.475 4.01 -6 3 C-3 1 -3 1 0 0 Z " fill="#1A372D" transform="translate(796,534)"/>
<path d="M0 0 C1.65 0.33 3.3 0.66 5 1 C5.33 1.99 5.66 2.98 6 4 C3.36 4 0.72 4 -2 4 C-1.34 2.68 -0.68 1.36 0 0 Z " fill="#265246" transform="translate(541,542)"/>
<path d="M0 0 C0.99 0.495 0.99 0.495 2 1 C2 1.66 2 2.32 2 3 C3.0828125 3.433125 3.0828125 3.433125 4.1875 3.875 C6.79166667 4.91666667 9.39583333 5.95833333 12 7 C11.67 7.66 11.34 8.32 11 9 C9.53919067 8.38080922 8.08142545 7.75443308 6.625 7.125 C5.81289063 6.77695312 5.00078125 6.42890625 4.1640625 6.0703125 C2 5 2 5 0 3 C0 2.01 0 1.02 0 0 Z " fill="#0C1C15" transform="translate(837,535)"/>
<path d="M0 0 C5.58381503 2.30635838 5.58381503 2.30635838 7.5 5.5 C7.665 6.325 7.83 7.15 8 8 C7.01 9.485 7.01 9.485 6 11 C5.814375 10.071875 5.62875 9.14375 5.4375 8.1875 C3.89272441 4.76212803 3.61378762 4.4794021 0.375 3.125 C-0.73875 2.75375 -1.8525 2.3825 -3 2 C-2.01 1.34 -1.02 0.68 0 0 Z " fill="#162F26" transform="translate(805,468)"/>
<path d="M0 0 C0.66 0 1.32 0 2 0 C2 0.66 2 1.32 2 2 C3.65 2 5.3 2 7 2 C5.875 3.5 5.875 3.5 4 5 C0.8125 5.1875 0.8125 5.1875 -2 5 C-1.125 1.125 -1.125 1.125 0 0 Z " fill="#1A3A2F" transform="translate(277,384)"/>
<path d="M0 0 C-1.26691507 0.67408308 -2.53870749 1.33900497 -3.8125 2 C-4.52019531 2.37125 -5.22789062 2.7425 -5.95703125 3.125 C-8 4 -8 4 -11 4 C-11 3.34 -11 2.68 -11 2 C-4.03571429 -1.34821429 -4.03571429 -1.34821429 0 0 Z " fill="#E0B123" transform="translate(321,375)"/>
<path d="M0 0 C-0.33 1.98 -0.66 3.96 -1 6 C-1.33 4.68 -1.66 3.36 -2 2 C-5.63 2 -9.26 2 -13 2 C-13 1.67 -13 1.34 -13 1 C-8.61414671 0.29826347 -4.44209357 -0.10834375 0 0 Z " fill="#D6B948" transform="translate(334,354)"/>
<path d="M0 0 C-1.65 0.66 -3.3 1.32 -5 2 C-5 2.66 -5 3.32 -5 4 C-6.65 3.67 -8.3 3.34 -10 3 C-10 2.34 -10 1.68 -10 1 C-3.375 -1.125 -3.375 -1.125 0 0 Z " fill="#255346" transform="translate(506,463)"/>
<path d="M0 0 C0.886875 0.804375 1.77375 1.60875 2.6875 2.4375 C5.38287032 4.7039159 7.42063478 5.68417366 11 6 C9.4375 7.25 9.4375 7.25 7 8 C4.42998985 6.93237266 2.3469597 5.53455057 0 4 C0 2.68 0 1.36 0 0 Z " fill="#132C23" transform="translate(311,534)"/>
<path d="M0 0 C0.66 0.33 1.32 0.66 2 1 C2.625 4.0625 2.625 4.0625 3 7 C2.34 7 1.68 7 1 7 C0.67 7.66 0.34 8.32 0 9 C-0.84454356 5.62182575 -1.10844919 3.32534757 0 0 Z " fill="#173228" transform="translate(270,507)"/>
<path d="M0 0 C2.95409701 1.37154504 5.44008376 2.98863724 8 5 C7.67 5.99 7.34 6.98 7 8 C6.34 7.67 5.68 7.34 5 7 C5 6.34 5 5.68 5 5 C4.34 5 3.68 5 3 5 C1.375 2.5 1.375 2.5 0 0 Z " fill="#0E261D" transform="translate(284,506)"/>
<path d="M0 0 C0.99 0 1.98 0 3 0 C2.52797514 4.24822374 0.03344482 6.19989709 -3 9 C-2.34 7.02 -1.68 5.04 -1 3 C-0.34 3 0.32 3 1 3 C0.67 2.01 0.34 1.02 0 0 Z " fill="#122C23" transform="translate(236,434)"/>
<path d="M0 0 C3.91211733 1.15585285 6.8745041 2.35534962 10 5 C9.67 5.66 9.34 6.32 9 7 C7.4972763 6.02501855 5.99788037 5.04490611 4.5 4.0625 C3.6646875 3.51722656 2.829375 2.97195313 1.96875 2.41015625 C1.3190625 1.94480469 0.669375 1.47945313 0 1 C0 0.67 0 0.34 0 0 Z " fill="#1B2F22" transform="translate(278,358)"/>
<path d="M0 0 C3.87132028 0.57352893 6.08172796 2.48704352 9 5 C5.8525787 5 4.71198463 4.399734 2 3 C1.34 3 0.68 3 0 3 C0 2.01 0 1.02 0 0 Z " fill="#183228" transform="translate(280,480)"/>
<path d="M0 0 C1.98 0.495 1.98 0.495 4 1 C4 2.65 4 4.3 4 6 C2.35 6.33 0.7 6.66 -1 7 C-1 6.34 -1 5.68 -1 5 C-0.34 4.67 0.32 4.34 1 4 C1.33 3.01 1.66 2.02 2 1 C1.34 0.67 0.68 0.34 0 0 Z " fill="#1D352D" transform="translate(847,541)"/>
<path d="M0 0 C3.37462715 0.54723683 5.08235 1.0549 8 3 C8 3.66 8 4.32 8 5 C2.25 3.125 2.25 3.125 0 2 C0 1.34 0 0.68 0 0 Z " fill="#132A21" transform="translate(619,542)"/>
<path d="M0 0 C0.66 0.66 1.32 1.32 2 2 C0.47793991 4.62901288 -0.84365964 6.84365964 -3 9 C-3.75 7.3125 -3.75 7.3125 -4 5 C-2.0625 2.25 -2.0625 2.25 0 0 Z " fill="#112A20" transform="translate(247,454)"/>
<path d="M0 0 C2 2 2 2 2.125 5.125 C2.08375 6.07375 2.0425 7.0225 2 8 C1.01 8 0.02 8 -1 8 C-0.67 5.36 -0.34 2.72 0 0 Z " fill="#1A382E" transform="translate(618,534)"/>
<path d="M0 0 C0.33 1.32 0.66 2.64 1 4 C-0.65 5.32 -2.3 6.64 -4 8 C-4 4.09161134 -2.49432124 2.88405893 0 0 Z " fill="#153027" transform="translate(458,531)"/>
<path d="M0 0 C0.99 0.495 0.99 0.495 2 1 C1.34 1.66 0.68 2.32 0 3 C0 2.01 0 1.02 0 0 Z " fill="#2C564B" transform="translate(392,528)"/>
<path d="" fill="#2A564A" transform="translate(0,0)"/>
<path d="M0 0 C2 1 2 1 2 1 Z " fill="#285248" transform="translate(304,498)"/>
<path d="M0 0 C2 1 2 1 2 1 Z " fill="#29564A" transform="translate(229,487)"/>
<path d="M0 0 C2 1 2 1 2 1 Z " fill="#2B5449" transform="translate(721,456)"/>
<path d="M0 0 C2 1 2 1 2 1 Z " fill="#717E4D" transform="translate(289,384)"/>
<path d="M0 0 C2 1 2 1 2 1 Z " fill="#2A5449" transform="translate(209,368)"/>
<path d="" fill="#2B5145" transform="translate(0,0)"/>
<path d="" fill="#2C5449" transform="translate(0,0)"/>
<path d="" fill="#2F584C" transform="translate(0,0)"/>
<path d="" fill="#30594B" transform="translate(0,0)"/>
<path d="" fill="#2F594C" transform="translate(0,0)"/>
<path d="" fill="#325A4C" transform="translate(0,0)"/>
<path d="" fill="#2C554C" transform="translate(0,0)"/>
<path d="" fill="#31584C" transform="translate(0,0)"/>
<path d="" fill="#2E594C" transform="translate(0,0)"/>
<path d="" fill="#2A544A" transform="translate(0,0)"/>
<path d="" fill="#2F594C" transform="translate(0,0)"/>
<path d="" fill="#2B5449" transform="translate(0,0)"/>
<path d="" fill="#2D584A" transform="translate(0,0)"/>
<path d="" fill="#2B5749" transform="translate(0,0)"/>
<path d="" fill="#2D564A" transform="translate(0,0)"/>
<path d="" fill="#2A574A" transform="translate(0,0)"/>
<path d="" fill="#2C5A4D" transform="translate(0,0)"/>
<path d="" fill="#2C574A" transform="translate(0,0)"/>
<path d="" fill="#2B584C" transform="translate(0,0)"/>
<path d="" fill="#2B594E" transform="translate(0,0)"/>
<path d="" fill="#2A5449" transform="translate(0,0)"/>
<path d="" fill="#2B584D" transform="translate(0,0)"/>
<path d="" fill="#2B584C" transform="translate(0,0)"/>
<path d="" fill="#275347" transform="translate(0,0)"/>
<path d="" fill="#2C5A4E" transform="translate(0,0)"/>
<path d="" fill="#28584C" transform="translate(0,0)"/>
<path d="" fill="#2F5C4F" transform="translate(0,0)"/>
<path d="" fill="#2D5649" transform="translate(0,0)"/>
<path d="" fill="#2D5749" transform="translate(0,0)"/>
<path d="" fill="#2A5345" transform="translate(0,0)"/>
<path d="" fill="#2D5749" transform="translate(0,0)"/>
<path d="" fill="#2C554C" transform="translate(0,0)"/>
<path d="" fill="#285246" transform="translate(0,0)"/>
<path d="" fill="#2D594B" transform="translate(0,0)"/>
<path d="" fill="#2B574B" transform="translate(0,0)"/>
<path d="" fill="#29574C" transform="translate(0,0)"/>
<path d="" fill="#285448" transform="translate(0,0)"/>
<path d="" fill="#2C574D" transform="translate(0,0)"/>
<path d="" fill="#285648" transform="translate(0,0)"/>
<path d="" fill="#2B5649" transform="translate(0,0)"/>
<path d="" fill="#295549" transform="translate(0,0)"/>
<path d="" fill="#2A544B" transform="translate(0,0)"/>
<path d="" fill="#2D594A" transform="translate(0,0)"/>
<path d="" fill="#2A5648" transform="translate(0,0)"/>
<path d="" fill="#2C594D" transform="translate(0,0)"/>
<path d="" fill="#2D5F50" transform="translate(0,0)"/>
<path d="" fill="#2B5547" transform="translate(0,0)"/>
<path d="" fill="#2A574A" transform="translate(0,0)"/>
<path d="" fill="#275648" transform="translate(0,0)"/>
<path d="" fill="#2B5549" transform="translate(0,0)"/>
<path d="" fill="#2C5549" transform="translate(0,0)"/>
<path d="" fill="#2E554C" transform="translate(0,0)"/>
<path d="" fill="#2B5649" transform="translate(0,0)"/>
<path d="" fill="#2C574C" transform="translate(0,0)"/>
<path d="" fill="#2B574B" transform="translate(0,0)"/>
<path d="" fill="#2C5849" transform="translate(0,0)"/>
<path d="" fill="#2C5549" transform="translate(0,0)"/>
<path d="" fill="#2A5749" transform="translate(0,0)"/>
<path d="" fill="#2D5849" transform="translate(0,0)"/>
<path d="" fill="#285548" transform="translate(0,0)"/>
<path d="" fill="#295448" transform="translate(0,0)"/>
<path d="" fill="#2A5449" transform="translate(0,0)"/>
<path d="" fill="#2C584F" transform="translate(0,0)"/>
<path d="" fill="#2C574C" transform="translate(0,0)"/>
<path d="" fill="#2C554B" transform="translate(0,0)"/>
<path d="" fill="#2B5249" transform="translate(0,0)"/>
<path d="" fill="#295749" transform="translate(0,0)"/>
<path d="" fill="#2B5145" transform="translate(0,0)"/>
<path d="" fill="#2A5447" transform="translate(0,0)"/>
<path d="" fill="#2B564A" transform="translate(0,0)"/>
<path d="" fill="#2C5448" transform="translate(0,0)"/>
<path d="" fill="#2E5B4E" transform="translate(0,0)"/>
<path d="" fill="#2C574A" transform="translate(0,0)"/>
<path d="" fill="#31564B" transform="translate(0,0)"/>
<path d="" fill="#2D564A" transform="translate(0,0)"/>
<path d="" fill="#2E594C" transform="translate(0,0)"/>
<path d="" fill="#2E594D" transform="translate(0,0)"/>
<path d="" fill="#2A5147" transform="translate(0,0)"/>
<path d="" fill="#31584C" transform="translate(0,0)"/>
<path d="" fill="#315A4D" transform="translate(0,0)"/>
<path d="" fill="#30594D" transform="translate(0,0)"/>
<path d="" fill="#30594B" transform="translate(0,0)"/>
<path d="" fill="#2E564A" transform="translate(0,0)"/>
<path d="" fill="#2C5347" transform="translate(0,0)"/>
<path d="" fill="#2B5349" transform="translate(0,0)"/>
<path d="" fill="#2A544A" transform="translate(0,0)"/>
<path d="" fill="#2E564A" transform="translate(0,0)"/>
<path d="" fill="#2C5346" transform="translate(0,0)"/>
<path d="" fill="#2D554B" transform="translate(0,0)"/>
<path d="" fill="#2B5448" transform="translate(0,0)"/>
<path d="" fill="#2A564A" transform="translate(0,0)"/>
<path d="" fill="#2A5447" transform="translate(0,0)"/>
<path d="" fill="#888E47" transform="translate(0,0)"/>
<path d="" fill="#7B824A" transform="translate(0,0)"/>
<path d="" fill="#898C49" transform="translate(0,0)"/>
<path d="" fill="#94914A" transform="translate(0,0)"/>
<path d="" fill="#BEB358" transform="translate(0,0)"/>
<path d="" fill="#4E6A4F" transform="translate(0,0)"/>
</svg>
