<?xml version="1.0" encoding="UTF-8"?>
<svg xmlns="http://www.w3.org/2000/svg" viewBox="78.8 290.2 322.4 322.4">
<path xmlns="http://www.w3.org/2000/svg" d="M0 0 C1.39443282 1.14266023 2.73645368 2.34895405 4.0625 3.5703125 C2.67008127 8.83589599 0.28776079 12.29578899 -3.0625 16.4453125 C-4.67125 18.4665625 -6.28 20.4878125 -7.9375 22.5703125 C2.2925 22.5703125 12.5225 22.5703125 23.0625 22.5703125 C23.3925 48.3103125 23.7225 74.0503125 24.0625 100.5703125 C27.6925 98.2603125 31.3225 95.9503125 35.0625 93.5703125 C46.05723832 89.17241717 56.77473367 90.02764795 67.56640625 94.640625 C78.07892494 100.01250426 85.09722395 109.20598587 88.875 120.3203125 C92.88442656 135.57045283 91.2940782 151.02817552 83.8203125 164.87109375 C76.45938886 176.91057055 66.17888204 183.41751549 52.87109375 186.95703125 C47.25224597 188.18395629 41.80361867 188.69585375 36.05737305 188.69970703 C35.39632065 188.70145935 34.73526825 188.70321167 34.05418396 188.70501709 C31.89416796 188.70937791 29.73423541 188.70651986 27.57421875 188.703125 C26.06443771 188.7037993 24.55465677 188.70477037 23.0448761 188.70602417 C19.89375771 188.70749296 16.7426678 188.70537147 13.59155273 188.70068359 C9.54847058 188.6949622 5.50545447 188.69828563 1.46237469 188.70425606 C-1.64906821 188.70786291 -4.76049534 188.70672294 -7.87193871 188.70412827 C-9.36351721 188.70346061 -10.85509713 188.70428181 -12.34667397 188.70660782 C-14.42427013 188.70913901 -16.50175766 188.70528828 -18.5793457 188.69970703 C-19.76180374 188.69891144 -20.94426178 188.69811584 -22.16255188 188.69729614 C-24.9375 188.5703125 -24.9375 188.5703125 -26.9375 187.5703125 C-26.9375 186.9103125 -26.9375 186.2503125 -26.9375 185.5703125 C-25.33618164 184.16918945 -25.33618164 184.16918945 -23.09765625 182.55859375 C-22.28103516 181.96498047 -21.46441406 181.37136719 -20.62304688 180.75976562 C-19.75744141 180.14037109 -18.89183594 179.52097656 -18 178.8828125 C-4.93404486 170.91842087 -4.93404486 170.91842087 4.0625 159.5703125 C3.98498654 156.51628212 3.6056848 153.57418987 3.0625 150.5703125 C2.4025 150.5703125 1.7425 150.5703125 1.0625 150.5703125 C1.0625 149.9103125 1.0625 149.2503125 1.0625 148.5703125 C0.4025 148.9003125 -0.2575 149.2303125 -0.9375 149.5703125 C-0.710625 150.6015625 -0.48375 151.6328125 -0.25 152.6953125 C0.11608179 157.23472666 -0.58879686 158.73458977 -2.9375 162.5703125 C-5.40625 164.88671875 -5.40625 164.88671875 -8.4375 167.1328125 C-8.99066895 167.544104 -9.54383789 167.95539551 -10.11376953 168.37915039 C-12.04111782 169.79656425 -13.9861645 171.18610944 -15.9375 172.5703125 C-16.71448242 173.12299805 -17.49146484 173.67568359 -18.29199219 174.24511719 C-20.79029808 176.01192383 -23.29860232 177.76327103 -25.8125 179.5078125 C-27.00649414 180.34131226 -27.00649414 180.34131226 -28.22460938 181.19165039 C-28.99353516 181.71750732 -29.76246094 182.24336426 -30.5546875 182.78515625 C-31.23128418 183.25042725 -31.90788086 183.71569824 -32.60498047 184.19506836 C-39.57077469 188.30207263 -44.67845058 188.99105671 -52.68359375 188.86328125 C-53.69470718 188.85903641 -54.70582062 188.85479156 -55.74757385 188.85041809 C-58.95699401 188.83371004 -62.16577165 188.79607203 -65.375 188.7578125 C-67.55923568 188.74275551 -69.74348127 188.72906888 -71.92773438 188.71679688 C-77.2645398 188.68383241 -82.60097398 188.63371193 -87.9375 188.5703125 C-87.9375 187.5803125 -87.9375 186.5903125 -87.9375 185.5703125 C-87.25574707 185.32498779 -86.57399414 185.07966309 -85.87158203 184.8269043 C-72.80420746 180.10516233 -59.81887091 175.2476916 -47 169.8828125 C-45.96697754 169.45637451 -44.93395508 169.02993652 -43.86962891 168.59057617 C-35.19790452 164.91185386 -26.19720458 160.67408666 -18.9375 154.5703125 C-18.16298041 151.5291841 -18.37539342 148.64568408 -18.9375 145.5703125 C-20.79466187 142.66221707 -20.79466187 142.66221707 -22.9375 140.5703125 C-22.9375 139.9103125 -22.9375 139.2503125 -22.9375 138.5703125 C-23.52499023 138.29703125 -24.11248047 138.02375 -24.71777344 137.7421875 C-26.86965748 136.60612905 -28.54446467 135.31903892 -30.453125 133.8203125 C-37.97384933 128.76147426 -47.05532583 126.96420793 -55.6875 124.5703125 C-57.54187235 124.04259372 -59.39579474 123.5132913 -61.24926758 122.98242188 C-68.85076506 120.81189517 -76.46682548 118.6950887 -84.08984375 116.6015625 C-85.05631836 116.3334375 -86.02279297 116.0653125 -87.01855469 115.7890625 C-88.68408162 115.32977894 -90.3525101 114.88081048 -92.02441406 114.4453125 C-104.75884943 110.96864582 -111.83385924 100.33887173 -119.1484375 90.06640625 C-121.28677882 87.08299992 -123.45360593 84.27337369 -125.9375 81.5703125 C-126.5975 81.5703125 -127.2575 81.5703125 -127.9375 81.5703125 C-127.4425 79.5903125 -127.4425 79.5903125 -126.9375 77.5703125 C-124.2497562 77.71240919 -121.56236698 77.8588848 -118.875 78.0078125 C-118.12283203 78.04712891 -117.37066406 78.08644531 -116.59570312 78.12695312 C-114.37419869 78.25197285 -112.15668234 78.40980797 -109.9375 78.5703125 C-108.67421875 78.63992188 -107.4109375 78.70953125 -106.109375 78.78125 C-102.9375 79.5703125 -102.9375 79.5703125 -100.92578125 81.86328125 C-100.37277344 82.81847656 -99.81976563 83.77367187 -99.25 84.7578125 C-91.17955058 96.61080653 -76.06208008 98.93671214 -62.9375 102.5703125 C-62.6075 102.2403125 -62.2775 101.9103125 -61.9375 101.5703125 C-62.411875 100.9928125 -62.88625 100.4153125 -63.375 99.8203125 C-64.94159762 97.56441193 -65.57469745 96.26109809 -65.9375 93.5703125 C-64.43907461 91.09555088 -62.94370923 88.9096466 -61.1875 86.6328125 C-60.27438072 85.41660984 -59.36288848 84.1991837 -58.453125 82.98046875 C-58.04352539 82.44558838 -57.63392578 81.91070801 -57.21191406 81.35961914 C-55.65332274 79.17132109 -54.31035439 76.87862342 -52.9375 74.5703125 C-63.39316269 74.40920012 -73.84892506 74.2560662 -84.30476761 74.10715485 C-86.86308836 74.07048324 -89.42139745 74.03307007 -91.97970581 73.99554443 C-109.83368933 73.73562756 -127.68300752 73.51685121 -145.5390625 73.609375 C-146.88649987 73.61537567 -148.2339374 73.6213374 -149.58137512 73.6272583 C-155.8195728 73.65786306 -162.0568696 73.7073139 -168.29467773 73.78320312 C-170.49983429 73.79860472 -172.70499371 73.81360426 -174.91015625 73.828125 C-175.90862579 73.84678619 -176.90709534 73.86544739 -177.93582153 73.88467407 C-178.83751068 73.88808807 -179.73919983 73.89150208 -180.66821289 73.89501953 C-181.45015518 73.90469757 -182.23209747 73.91437561 -183.03773499 73.92434692 C-183.97811867 73.74909988 -183.97811867 73.74909988 -184.9375 73.5703125 C-185.5975 72.5803125 -186.2575 71.5903125 -186.9375 70.5703125 C-186.2775 70.5703125 -185.6175 70.5703125 -184.9375 70.5703125 C-184.793125 69.6215625 -184.64875 68.6728125 -184.5 67.6953125 C-182.29962692 60.01741495 -174.89848957 53.35245812 -168.08984375 49.5234375 C-162.98708604 47.2637771 -157.58979135 45.8201919 -152.03515625 45.296875 C-146.42136162 44.77039982 -146.42136162 44.77039982 -142.0078125 41.5390625 C-140.85189932 39.81318292 -139.73191191 38.06282719 -138.64453125 36.29296875 C-131.35735046 24.67016553 -118.89524756 18.30955664 -106 14.6328125 C-102.53878559 13.84896312 -99.30280607 13.52327241 -95.76953125 13.53125 C-87.44193532 13.73858615 -87.44193532 13.73858615 -80.015625 10.53515625 C-78.37886533 8.80717589 -76.79172346 7.03083186 -75.2578125 5.2109375 C-57.38164206 -15.13298711 -20.92938418 -15.4438601 0 0 Z M-67.9375 34.5703125 C-60.79925549 41.77914534 -52.90547294 46.74092014 -44 51.5078125 C-43.25395508 51.90967773 -42.50791016 52.31154297 -41.73925781 52.72558594 C-41.0325293 53.09586914 -40.32580078 53.46615234 -39.59765625 53.84765625 C-38.96480713 54.18015381 -38.33195801 54.51265137 -37.67993164 54.85522461 C-35.78884833 55.76014615 -35.78884833 55.76014615 -32.9375 55.5703125 C-31.25646503 53.92066442 -31.25646503 53.92066442 -29.6875 51.6953125 C-29.08292969 50.88449219 -28.47835937 50.07367188 -27.85546875 49.23828125 C-24.84052184 45.04437343 -21.86183745 40.82793451 -18.9375 36.5703125 C-19.4325 35.5803125 -19.4325 35.5803125 -19.9375 34.5703125 C-20.9275 34.5703125 -21.9175 34.5703125 -22.9375 34.5703125 C-37.9375 34.5703125 -52.9375 34.5703125 -67.9375 34.5703125 Z M-9.9375 49.5703125 C-14.43233966 55.40453901 -18.57459678 61.42136375 -22.625 67.5703125 C-27.52277944 74.96993416 -32.47303426 82.32548985 -37.5612793 89.59570312 C-39.58054374 92.50026852 -41.48601161 95.33671893 -42.9375 98.5703125 C-38.58313115 103.23570769 -33.67580847 106.95732837 -28.5625 110.7578125 C-27.67127441 111.42272705 -26.78004883 112.0876416 -25.86181641 112.77270508 C-19.01877041 117.84328797 -12.04552518 122.65042111 -4.90478516 127.28857422 C-1.0875903 129.77557757 2.70528806 132.29920027 6.5 134.8203125 C7.2336377 135.30395264 7.96727539 135.78759277 8.72314453 136.28588867 C25.12761527 147.16937306 25.12761527 147.16937306 27.0625 153.5703125 C27.89598192 160.14236537 27.32712037 164.75077184 24.0625 170.5703125 C24.14495238 173.45614595 24.73726051 174.25668871 26.8125 176.2578125 C32.44413266 179.54293155 39.96276489 179.37115681 46.2421875 178.14453125 C52.52247479 176.15292263 56.72364212 172.10410089 60.31640625 166.67578125 C66.78433039 154.19340366 65.87078633 138.26961468 62.08984375 125.2109375 C59.04322078 116.90759896 54.4694126 111.53692923 46.5 107.6328125 C39.68121863 105.52518917 33.40960494 106.42609046 27.0625 109.5703125 C24.43063823 111.70921464 23.18813422 112.83514971 22.60839844 116.22753906 C22.63981934 117.70432129 22.63981934 117.70432129 22.671875 119.2109375 C22.69121094 120.81582031 22.69121094 120.81582031 22.7109375 122.453125 C22.74445313 123.56429687 22.77796875 124.67546875 22.8125 125.8203125 C22.83054687 126.94695312 22.84859375 128.07359375 22.8671875 129.234375 C22.91429778 132.01388146 22.98006639 134.7916659 23.0625 137.5703125 C20.82956126 136.26390436 18.60050169 134.95180829 16.375 133.6328125 C15.70178711 133.23400879 15.02857422 132.83520508 14.33496094 132.42431641 C8.55006497 128.95365029 3.09558759 125.13207124 -2.328125 121.125 C-3.18921875 120.61195313 -4.0503125 120.09890625 -4.9375 119.5703125 C-5.9275 119.9003125 -6.9175 120.2303125 -7.9375 120.5703125 C-7.9375 97.4703125 -7.9375 74.3703125 -7.9375 50.5703125 C-8.5975 50.2403125 -9.2575 49.9103125 -9.9375 49.5703125 Z " fill="#1E493E" transform="translate(287.9375,362.4296875)"/>
<path xmlns="http://www.w3.org/2000/svg" d="M0 0 C-1.18487057 8.82524284 -4.7985402 14.57550529 -11.625 20.25 C-19.06895307 25.45367767 -27.6778546 27.35822159 -36.625 27.82421875 C-38.98031296 27.90819254 -38.98031296 27.90819254 -41.0625 28.64453125 C-43.62441872 29.11456069 -44.82162419 28.32258531 -47 27 C-45.61618399 25.37401619 -44.23030592 23.74975616 -42.8359375 22.1328125 C-41.5824887 20.67667837 -40.3380545 19.21274795 -39.1015625 17.7421875 C-28.52928166 5.41482447 -16.55548072 -0.40379221 0 0 Z " fill="#F1BB25" transform="translate(334,354)"/>
<path xmlns="http://www.w3.org/2000/svg" d="M0 0 C0.66 0.33 1.32 0.66 2 1 C1.67273894 3.94534955 1.04506274 4.95716156 -1.13671875 7.03125 C-4.99292067 10.77867136 -7.70999109 15.32504786 -10.625 19.8125 C-11.86092339 21.6934025 -13.09791553 23.57360314 -14.3359375 25.453125 C-14.94920898 26.38576172 -15.56248047 27.31839844 -16.19433594 28.27929688 C-19.26724698 32.90943759 -22.43683217 37.47230629 -25.62353516 42.0246582 C-29.48771208 47.07161206 -29.48771208 47.07161206 -31 53 C-30.42741455 53.26554687 -29.8548291 53.53109375 -29.26489258 53.8046875 C-26.88839942 55.05889797 -24.89184024 56.48845775 -22.76171875 58.125 C-21.94944824 58.7439917 -21.13717773 59.3629834 -20.30029297 60.00073242 C-19.43807129 60.66049072 -18.57584961 61.32024902 -17.6875 62 C-9.94667183 67.86306116 -2.10371567 73.43415436 6.03710938 78.72265625 C36.91594007 98.8169401 36.91594007 98.8169401 39 106 C39.82559719 112.57597762 39.26716266 117.17592742 36 123 C35.9751247 125.23966377 35.9751247 125.23966377 37 127 C39.93580566 128.95720377 40.89822836 129.30195175 44.23046875 129.6328125 C45.03291016 129.71660156 45.83535156 129.80039062 46.66210938 129.88671875 C47.49548828 129.96535156 48.32886719 130.04398438 49.1875 130.125 C50.03248047 130.21136719 50.87746094 130.29773438 51.74804688 130.38671875 C53.83128923 130.5985739 55.91556042 130.80026777 58 131 C53.69729181 133.86847213 50.05131891 133.58967577 45 133 C35.96630497 130.44945745 35.96630497 130.44945745 33 126 C33.31038006 123.67214958 34.06624794 121.85157427 35.0234375 119.70703125 C37.03847002 114.12136109 36.95843991 108.16690762 34.5625 102.75 C26.55723768 94.15898678 15.89100632 88.15235093 6.11474609 81.76904297 C-3.26131643 75.64433704 -12.32078756 69.2023619 -21.20214844 62.37792969 C-22.85843502 61.10849983 -24.52636169 59.85429575 -26.1953125 58.6015625 C-27.10023438 57.90804687 -28.00515625 57.21453125 -28.9375 56.5 C-29.70964844 55.9121875 -30.48179687 55.324375 -31.27734375 54.71875 C-33.32875355 52.67199193 -33.84058915 51.89163137 -34 49 C-32.6488245 46.89177613 -31.31527413 45.11386224 -29.7109375 43.21484375 C-25.83368854 38.4086446 -22.20441087 33.52452977 -18.7890625 28.37890625 C-18.3632489 27.73819183 -17.9374353 27.09747742 -17.49871826 26.43734741 C-16.20380892 24.48146097 -14.91424513 22.52212343 -13.625 20.5625 C-12.74132964 19.22691952 -11.85721639 17.89163196 -10.97265625 16.55664062 C-9.35616077 14.11579949 -7.74220933 11.67332229 -6.13134766 9.22875977 C-4.09659615 6.14633266 -2.05116159 3.07151428 0 0 Z " fill="#0F2119" transform="translate(277,410)"/>
<path xmlns="http://www.w3.org/2000/svg" d="M0 0 C2.6877438 0.14209669 5.37513302 0.2885723 8.0625 0.4375 C8.81466797 0.47681641 9.56683594 0.51613281 10.34179688 0.55664062 C12.56330131 0.68166035 14.78081766 0.83949547 17 1 C18.26328125 1.06960938 19.5265625 1.13921875 20.828125 1.2109375 C24 2 24 2 26.01171875 4.29296875 C26.56472656 5.24816406 27.11773437 6.20335937 27.6875 7.1875 C35.75794942 19.04049403 50.87541992 21.36639964 64 25 C64.495 24.505 64.495 24.505 65 24 C64.525625 23.4225 64.05125 22.845 63.5625 22.25 C61.93712899 19.90946574 61.21351447 18.82037724 61 16 C62.546875 13.203125 62.546875 13.203125 64.75 10.25 C65.46671875 9.26515625 66.1834375 8.2803125 66.921875 7.265625 C67.60765625 6.51796875 68.2934375 5.7703125 69 5 C69.99 5 70.98 5 72 5 C71.41089844 5.74765625 70.82179688 6.4953125 70.21484375 7.265625 C69.46332031 8.25046875 68.71179688 9.2353125 67.9375 10.25 C67.18339844 11.22453125 66.42929688 12.1990625 65.65234375 13.203125 C63.79293726 15.76991573 63.79293726 15.76991573 64.09375 18.1640625 C65.05606449 20.11357892 66.09319433 21.52592659 67.5625 23.125 C70 26 70 26 70 28 C63.09058608 27.36054703 56.66162277 25.72112088 50 23.8125 C48.9584375 23.53341797 47.916875 23.25433594 46.84375 22.96679688 C38.03812023 20.44852018 31.52395281 16.85039678 26.25 9.1875 C24.25185319 6.15081735 24.25185319 6.15081735 21.28125 4.2734375 C17.94383264 3.8734046 14.6043539 3.63089848 11.25 3.4375 C10.55261719 3.39431641 9.85523438 3.35113281 9.13671875 3.30664062 C7.42468078 3.20110404 5.71236439 3.1001009 4 3 C9.12296839 9.78987784 14.31837632 16.51568104 19.75 23.0625 C20.18481689 23.59770264 20.61963379 24.13290527 21.06762695 24.68432617 C24.01854935 28.19855071 27.10033265 30.60799093 31 33 C31.99 33.66 32.98 34.32 34 35 C28.24210285 34.88004381 25.33482238 33.27271954 21.16796875 29.34765625 C17.18762599 25.03741121 13.71925788 20.33904508 10.22265625 15.63671875 C8.34811863 13.12735369 6.43263527 10.6523102 4.5 8.1875 C3.8709375 7.37667969 3.241875 6.56585938 2.59375 5.73046875 C2.0678125 5.15941406 1.541875 4.58835937 1 4 C0.34 4 -0.32 4 -1 4 C-0.67 2.68 -0.34 1.36 0 0 Z " fill="#0F251D" transform="translate(161,440)"/>
<path xmlns="http://www.w3.org/2000/svg" d="M0 0 C9.31868908 1.32399518 18.2059595 3.93585677 27.19848633 6.63085938 C29.69006183 7.37576591 32.18554822 8.10632932 34.68164062 8.8359375 C36.29192172 9.31424635 37.90195669 9.79338473 39.51171875 10.2734375 C40.2452507 10.48712982 40.97878265 10.70082214 41.73454285 10.92098999 C52.57960108 14.20641312 63.00087823 19.93583931 68.6875 30.1875 C69.69890158 32.65981498 70.02868254 34.35136115 70.25 37.0625 C64.07535868 51.57290711 37.48886168 58.52551971 24 64 C10.80177778 69.26725926 10.80177778 69.26725926 7 68 C12.88453934 65.30280321 18.83981207 62.8530963 24.86914062 60.49902344 C35.8857759 56.19007038 46.61618008 51.67401588 57 46 C57.9796875 45.50113281 58.959375 45.00226562 59.96875 44.48828125 C64.38261113 42.06726637 64.38261113 42.06726637 66.67578125 37.8046875 C66.91496222 33.6634398 66.35639522 31.52345548 64 28.0625 C63.34 27.381875 62.68 26.70125 62 26 C62 25.34 62 24.68 62 24 C61.4114624 23.72647705 60.8229248 23.4529541 60.21655273 23.17114258 C58.07427518 22.03924419 56.42883375 20.76143851 54.53515625 19.26171875 C46.80793589 14.05489725 37.31396123 12.25694443 28.4375 9.8125 C25.65463868 9.03165546 22.87310588 8.2463088 20.09230042 7.45817566 C18.37186656 6.97211441 16.65004709 6.49092008 14.92662048 6.01557922 C9.83244653 4.59486988 4.92753151 2.92282728 0 1 C0 0.67 0 0.34 0 0 Z " fill="#11261E" transform="translate(203,477)"/>
<path xmlns="http://www.w3.org/2000/svg" d="M0 0 C0.33 26.73 0.66 53.46 1 81 C0.01 81 -0.98 81 -2 81 C-2 54.93 -2 28.86 -2 2 C-2.99 2.33 -3.98 2.66 -5 3 C-7.06498892 3.08315752 -9.1325789 3.10735878 -11.19921875 3.09765625 C-12.40771484 3.09443359 -13.61621094 3.09121094 -14.86132812 3.08789062 C-16.7552832 3.07532227 -16.7552832 3.07532227 -18.6875 3.0625 C-20.59885742 3.05573242 -20.59885742 3.05573242 -22.54882812 3.04882812 C-25.69926564 3.03702873 -28.84960949 3.02056597 -32 3 C-32 2.67 -32 2.34 -32 2 C-27.25992342 0.85118307 -22.53863211 0.66778721 -17.6875 0.4375 C-16.87087891 0.39431641 -16.05425781 0.35113281 -15.21289062 0.30664062 C-10.12161445 0.05106262 -5.11351649 0 0 0 Z " fill="#122D23" transform="translate(311,385)"/>
<path xmlns="http://www.w3.org/2000/svg" d="M0 0 C7.30303079 5.90457808 12.89268406 12.4435399 15.9375 21.375 C16.5253125 22.9528125 16.5253125 22.9528125 17.125 24.5625 C20.55420012 40.65336211 18.92316824 56.31767601 9.9375 70.25 C7.84341398 73.25294062 5.69270603 75.93770236 2.9375 78.375 C2.2775 78.045 1.6175 77.715 0.9375 77.375 C1.38480469 76.90191406 1.83210938 76.42882812 2.29296875 75.94140625 C14.76778614 62.29624352 15.8139568 49.00687741 15.12841797 31.12597656 C14.46815527 21.61211449 10.30587854 13.3939791 3.9375 6.375 C-3.56227257 0.09642934 -11.38651039 -2.91458195 -21 -3.8125 C-22.16885742 -3.9352832 -22.16885742 -3.9352832 -23.36132812 -4.06054688 C-25.26070797 -4.25864171 -27.16148762 -4.44323841 -29.0625 -4.625 C-29.0625 -4.955 -29.0625 -5.285 -29.0625 -5.625 C-18.52429791 -8.10346405 -9.28187285 -4.92507539 0 0 Z " fill="#0F221A" transform="translate(360.0625,459.625)"/>
<path xmlns="http://www.w3.org/2000/svg" d="M0 0 C0.66 0.33 1.32 0.66 2 1 C-2.1168333 5.44552259 -6.7029126 8.76720211 -11.6875 12.1875 C-13.21343605 13.24175991 -14.73823006 14.29767529 -16.26171875 15.35546875 C-17.26658325 16.04612427 -17.26658325 16.04612427 -18.29174805 16.75073242 C-20.1310989 18.0288612 -20.1310989 18.0288612 -22 20 C0.77 20.33 23.54 20.66 47 21 C42.79165162 23.10417419 40.93563678 23.24841432 36.33544922 23.24291992 C35.34452774 23.24576744 35.34452774 23.24576744 34.33358765 23.24867249 C32.15716562 23.25236744 29.98107969 23.24169621 27.8046875 23.23046875 C26.2906193 23.22927631 24.77655034 23.22882392 23.26248169 23.2290802 C20.09339755 23.22751765 16.92442674 23.21924411 13.75537109 23.20581055 C9.68865356 23.18879201 5.62206018 23.18499717 1.5553112 23.18575573 C-1.56901235 23.18548418 -4.69330864 23.18000584 -7.81762314 23.17275429 C-9.31757272 23.16956785 -10.8175254 23.16760027 -12.31747818 23.16686058 C-14.40978542 23.16469839 -16.50195953 23.1559577 -18.59423828 23.14526367 C-20.38149826 23.13954597 -20.38149826 23.13954597 -22.2048645 23.13371277 C-25 23 -25 23 -27 22 C-27 21.34 -27 20.68 -27 20 C-25.3828125 18.58300781 -25.3828125 18.58300781 -23.125 16.953125 C-21.89330078 16.0559375 -21.89330078 16.0559375 -20.63671875 15.140625 C-19.76660156 14.51671875 -18.89648438 13.8928125 -18 13.25 C-16.31228326 12.02634055 -14.62478124 10.80238488 -12.9375 9.578125 C-12.11378906 8.98322266 -11.29007812 8.38832031 -10.44140625 7.77539062 C-6.93129145 5.22283514 -3.4615353 2.61790693 0 0 Z " fill="#163028" transform="translate(288,528)"/>
<path xmlns="http://www.w3.org/2000/svg" d="M0 0 C2.39087317 3.58630975 2.20010077 4.99625707 2.08081055 9.24047852 C2.05226486 10.52934464 2.02371918 11.81821075 1.99430847 13.14613342 C1.96652345 14.17985927 1.96652345 14.17985927 1.93817711 15.23446846 C1.85018791 18.9012654 1.82971242 22.56868404 1.79882812 26.23632812 C1.75723761 30.89674774 1.69570253 35.55367693 1.55102539 40.2121582 C0.31592707 56.35717067 0.31592707 56.35717067 4.44909668 71.36566162 C8.36052895 75.36657807 12.8111859 77.1318113 18 79 C19.82361618 80.11606657 21.62527277 81.27132788 23.375 82.5 C24.40753906 83.16515625 24.40753906 83.16515625 25.4609375 83.84375 C27 85 27 85 28 87 C24.57058601 85.70942548 21.50108951 84.22056467 18.375 82.3125 C17.51648438 81.79042969 16.65796875 81.26835937 15.7734375 80.73046875 C11.8983477 78.31263103 8.06861164 75.82627639 4.25 73.3203125 C2.14730554 71.83129876 2.14730554 71.83129876 0 72 C-0.15390143 63.20308071 -0.30208206 54.40608907 -0.4429636 45.60895157 C-0.50856042 41.52407811 -0.57612609 37.43925702 -0.64819336 33.35449219 C-0.71767176 29.4123559 -0.78197564 25.47016603 -0.84269524 21.52788544 C-0.8667677 20.02397346 -0.89270339 18.52009011 -0.92053413 17.01624298 C-0.9592012 14.90963718 -0.99123777 12.80302687 -1.02172852 10.69628906 C-1.04171402 9.49715881 -1.06169952 8.29802856 -1.08229065 7.06256104 C-1.01312497 4.48846414 -0.76902078 2.43900945 0 0 Z " fill="#0D241C" transform="translate(280,411)"/>
<path xmlns="http://www.w3.org/2000/svg" d="M0 0 C5.61 0.33 11.22 0.66 17 1 C17 1.33 17 1.66 17 2 C10.565 2.495 10.565 2.495 4 3 C9.12296839 9.78987784 14.31837632 16.51568104 19.75 23.0625 C20.18481689 23.59770264 20.61963379 24.13290527 21.06762695 24.68432617 C24.01854935 28.19855071 27.10033265 30.60799093 31 33 C31.99 33.66 32.98 34.32 34 35 C28.24210285 34.88004381 25.33482238 33.27271954 21.16796875 29.34765625 C17.18762599 25.03741121 13.71925788 20.33904508 10.22265625 15.63671875 C8.34811863 13.12735369 6.43263527 10.6523102 4.5 8.1875 C3.8709375 7.37667969 3.241875 6.56585938 2.59375 5.73046875 C2.0678125 5.15941406 1.541875 4.58835937 1 4 C0.34 4 -0.32 4 -1 4 C-0.67 2.68 -0.34 1.36 0 0 Z " fill="#132A21" transform="translate(161,440)"/>
<path xmlns="http://www.w3.org/2000/svg" d="M0 0 C0 0.66 0 1.32 0 2 C-1.86044066 3.43043315 -3.79053641 4.77103536 -5.75 6.0625 C-6.81734375 6.77535156 -7.8846875 7.48820313 -8.984375 8.22265625 C-13.46193618 10.86163337 -16.85548001 11.12732884 -22.0234375 11.1328125 C-23.79412598 11.13571289 -23.79412598 11.13571289 -25.60058594 11.13867188 C-26.84614258 11.13416016 -28.09169922 11.12964844 -29.375 11.125 C-31.26653809 11.12209961 -31.26653809 11.12209961 -33.19628906 11.11914062 C-41.50433517 11.08050853 -49.73194606 10.87032147 -58 10 C-58 9.67 -58 9.34 -58 9 C-56.09492676 9.01740234 -56.09492676 9.01740234 -54.15136719 9.03515625 C-49.38721294 9.06797084 -44.62444619 9.04764743 -39.86035156 9.01220703 C-37.80827471 9.00415335 -35.75608957 9.01003789 -33.70410156 9.03076172 C-21.15947178 9.1468026 -9.4231824 0 0 0 Z " fill="#132820" transform="translate(262,540)"/>
<path xmlns="http://www.w3.org/2000/svg" d="M0 0 C4.66714289 1.83025211 8.18765077 3.6497537 12 7 C11.67 7.99 11.34 8.98 11 10 C10.34 9.67 9.68 9.34 9 9 C9 8.34 9 7.68 9 7 C8.01 7.495 8.01 7.495 7 8 C7.226875 9.03125 7.45375 10.0625 7.6875 11.125 C8.05564537 15.69000262 7.39230647 17.15278062 5 21 C2.91603541 22.8752899 0.94452605 24.50076105 -1.3125 26.125 C-1.86873047 26.54136719 -2.42496094 26.95773437 -2.99804688 27.38671875 C-4.65017835 28.61379661 -6.32229474 29.80822 -8 31 C-8.54446777 31.40573242 -9.08893555 31.81146484 -9.64990234 32.22949219 C-11.23046875 33.3671875 -11.23046875 33.3671875 -14 35 C-14.99 34.67 -15.98 34.34 -17 34 C-16.51120361 33.66790527 -16.02240723 33.33581055 -15.51879883 32.99365234 C-13.27708619 31.46307626 -11.04484375 29.91920508 -8.8125 28.375 C-8.04357422 27.85292969 -7.27464844 27.33085938 -6.48242188 26.79296875 C-1.89244728 23.60165594 1.75196958 20.57414935 5 16 C5.79953487 11.20279079 4.48352189 8.10736312 2 4 C1.34 3.67 0.68 3.34 0 3 C0 2.01 0 1.02 0 0 Z " fill="#122920" transform="translate(280,504)"/>
<path xmlns="http://www.w3.org/2000/svg" d="M0 0 C1.01771484 0.00902344 2.03542969 0.01804687 3.08398438 0.02734375 C5.57707156 0.05075302 8.06965859 0.083543 10.5625 0.125 C10.5625 0.455 10.5625 0.785 10.5625 1.125 C9.93384033 1.15940186 9.30518066 1.19380371 8.6574707 1.22924805 C-12.29422743 2.46530817 -27.54243522 6.64282987 -43.4375 21.125 C-38.20879511 9.8857278 -26.19570977 5.01241933 -15.15234375 0.90234375 C-10.06730274 -0.16171846 -5.17784257 -0.08758875 0 0 Z " fill="#0C1E17" transform="translate(194.4375,376.875)"/>
<path xmlns="http://www.w3.org/2000/svg" d="M0 0 C5.15720319 0.56503222 9.17591742 3.08361696 13.625 5.5625 C15.13484732 6.40286266 16.64775471 7.23775734 18.1640625 8.06640625 C19.16107178 8.6224353 19.16107178 8.6224353 20.17822266 9.18969727 C22.12453829 10.20319988 22.12453829 10.20319988 25 10 C26.65501274 8.30555091 26.65501274 8.30555091 28.125 6.125 C28.64320313 5.40570313 29.16140625 4.68640625 29.6953125 3.9453125 C31.03299829 2.0396601 31.03299829 2.0396601 32 0 C32.99 0.33 33.98 0.66 35 1 C33.59854546 3.01234498 32.18072859 5.00864109 30.75 7 C30.35425781 7.57234375 29.95851563 8.1446875 29.55078125 8.734375 C28.359375 10.375 28.359375 10.375 26 13 C21.74089372 13 20.41454819 12.39416643 16.796875 10.375 C15.8171875 9.83359375 14.8375 9.2921875 13.828125 8.734375 C12.81234375 8.16203125 11.7965625 7.5896875 10.75 7 C9.71875 6.42765625 8.6875 5.8553125 7.625 5.265625 C5.07905139 3.8512091 2.53771164 2.42912568 0 1 C0 0.67 0 0.34 0 0 Z " fill="#0F271E" transform="translate(230,407)"/>
<path xmlns="http://www.w3.org/2000/svg" d="M0 0 C0.66 0.33 1.32 0.66 2 1 C-2.1168333 5.44552259 -6.7029126 8.76720211 -11.6875 12.1875 C-13.21343605 13.24175991 -14.73823006 14.29767529 -16.26171875 15.35546875 C-17.26658325 16.04612427 -17.26658325 16.04612427 -18.29174805 16.75073242 C-20.1310989 18.0288612 -20.1310989 18.0288612 -22 20 C-21.34 20.66 -20.68 21.32 -20 22 C-24.75 23.125 -24.75 23.125 -27 22 C-27 21.34 -27 20.68 -27 20 C-25.3828125 18.58300781 -25.3828125 18.58300781 -23.125 16.953125 C-21.89330078 16.0559375 -21.89330078 16.0559375 -20.63671875 15.140625 C-19.76660156 14.51671875 -18.89648438 13.8928125 -18 13.25 C-16.31228326 12.02634055 -14.62478124 10.80238488 -12.9375 9.578125 C-12.11378906 8.98322266 -11.29007812 8.38832031 -10.44140625 7.77539062 C-6.93129145 5.22283514 -3.4615353 2.61790693 0 0 Z " fill="#0F2119" transform="translate(288,528)"/>
<path xmlns="http://www.w3.org/2000/svg" d="M0 0 C0.33 0 0.66 0 1 0 C1.79889522 10.03057331 -0.46243839 20.11646982 -7 28 C-9.94449243 30.91266008 -12.73272462 33.50762207 -17 34 C-17 33.34 -17 32.68 -17 32 C-15.55181887 31.05699834 -14.10324164 30.11459753 -12.65234375 29.17578125 C-6.34210051 24.6855136 -3.98850037 18.23454406 -2 11 C-1.50570679 7.98970979 -1.24172637 5.04575223 -1 2 C-0.67 1.34 -0.34 0.68 0 0 Z " fill="#12281F" transform="translate(353,507)"/>
<path xmlns="http://www.w3.org/2000/svg" d="M0 0 C-2.79823575 2.27956963 -5.28283023 3.58769728 -8.6875 4.75 C-15.53417046 7.38566518 -20.66468938 11.66468938 -25.8125 16.8125 C-27.82818947 18.82818947 -29.3851706 19.93469913 -32 21 C-27.61192875 11.3630397 -17.40981902 5.38054902 -8.125 1.0625 C-5.17095384 0.0581243 -3.08681957 -0.28061996 0 0 Z " fill="#12271E" transform="translate(238,355)"/>
<path xmlns="http://www.w3.org/2000/svg" d="M0 0 C15.51 0 31.02 0 47 0 C47 0.33 47 0.66 47 1 C32.48 1.33 17.96 1.66 3 2 C5.31 3.98 7.62 5.96 10 8 C9.67 8.66 9.34 9.32 9 10 C7.49410612 8.71520959 5.99542625 7.42195918 4.5 6.125 C3.6646875 5.40570313 2.829375 4.68640625 1.96875 3.9453125 C1.3190625 3.30335938 0.669375 2.66140625 0 2 C0 1.34 0 0.68 0 0 Z " fill="#000100" transform="translate(218,396)"/>
<path xmlns="http://www.w3.org/2000/svg" d="M0 0 C5.67853635 1.41963409 9.53174216 4.39363961 14 8 C12.68246445 12.62509876 10.84885893 16.0101877 8 19.875 C7.29875 20.84179688 6.5975 21.80859375 5.875 22.8046875 C5.25625 23.52914063 4.6375 24.25359375 4 25 C3.34 25 2.68 25 2 25 C3.82454363 21.07500614 6.28300019 17.78050326 8.85546875 14.31640625 C10.19716516 12.04471614 10.19716516 12.04471614 9.9609375 9.41796875 C8.71875175 6.29230624 7.3017908 5.45333412 4.4375 3.75 C2.94880654 2.84888758 1.46677564 1.93636586 0 1 C0 0.67 0 0.34 0 0 Z " fill="#213627" transform="translate(278,358)"/>
<path xmlns="http://www.w3.org/2000/svg" d="M0 0 C0.66 0 1.32 0 2 0 C2.19789024 3.22861733 2.38146345 6.45789727 2.5625 9.6875 C2.61857422 10.59951172 2.67464844 11.51152344 2.73242188 12.45117188 C2.78076172 13.33740234 2.82910156 14.22363281 2.87890625 15.13671875 C2.94960327 16.35427856 2.94960327 16.35427856 3.02172852 17.59643555 C2.99838228 20.1789485 2.5804792 22.48849909 2 25 C1.34 25 0.68 25 0 25 C0 16.75 0 8.5 0 0 Z " fill="#132F26" transform="translate(309,475)"/>
<path xmlns="http://www.w3.org/2000/svg" d="M0 0 C-1.49018223 2.98036446 -3.9035664 3.09323027 -6.8828125 4.1640625 C-13.12179129 6.62742313 -17.47608468 11.23516611 -22 16 C-22.33 15.34 -22.66 14.68 -23 14 C-16.90216104 6.32053406 -10.36230349 -0.28006226 0 0 Z " fill="#11251D" transform="translate(130,410)"/>
<path xmlns="http://www.w3.org/2000/svg" d="M0 0 C0 0.33 0 0.66 0 1 C-9.24 1 -18.48 1 -28 1 C-27.67 0.34 -27.34 -0.32 -27 -1 C-18.36348383 -3.01475934 -8.34322567 -3.17837168 0 0 Z " fill="#162C23" transform="translate(267,354)"/>
<path xmlns="http://www.w3.org/2000/svg" d="M0 0 C0.33 0.99 0.66 1.98 1 3 C14.86 3 28.72 3 43 3 C43 3.33 43 3.66 43 4 C28.48 4.33 13.96 4.66 -1 5 C-0.67 3.35 -0.34 1.7 0 0 Z " fill="#235448" transform="translate(106,429)"/>
<path xmlns="http://www.w3.org/2000/svg" d="M0 0 C0.66 0 1.32 0 2 0 C2.72526532 7.84402334 3.21074074 15.19744856 2 23 C-0.13604308 19.79593538 -0.24208908 19.00399253 -0.1953125 15.33203125 C-0.18564453 13.99301758 -0.18564453 13.99301758 -0.17578125 12.62695312 C-0.15902344 11.69818359 -0.14226562 10.76941406 -0.125 9.8125 C-0.11597656 8.87212891 -0.10695313 7.93175781 -0.09765625 6.96289062 C-0.07409056 4.64167032 -0.04119116 2.32096356 0 0 Z " fill="#142B22" transform="translate(376,488)"/>
<path xmlns="http://www.w3.org/2000/svg" d="M0 0 C7.61973555 2.8710075 14.58559059 6.86366933 20 13 C12.38026445 10.1289925 5.41440941 6.13633067 0 0 Z " fill="#12251C" transform="translate(288,485)"/>
<path xmlns="http://www.w3.org/2000/svg" d="M0 0 C0 0.66 0 1.32 0 2 C-1.98 2.33 -3.96 2.66 -6 3 C-6 3.66 -6 4.32 -6 5 C-2.04 5 1.92 5 6 5 C6 5.33 6 5.66 6 6 C0.72 6 -4.56 6 -10 6 C-10 5.01 -10 4.02 -10 3 C-8.70990357 2.49596232 -7.41786211 1.99690074 -6.125 1.5 C-5.04605469 1.08234375 -5.04605469 1.08234375 -3.9453125 0.65625 C-2 0 -2 0 0 0 Z " fill="#1E3C33" transform="translate(210,545)"/>
<path xmlns="http://www.w3.org/2000/svg" d="M0 0 C-1.22934015 3.68802044 -2.93859378 4.72356973 -6 7 C-5.34 7.66 -4.68 8.32 -4 9 C-8.75 10.125 -8.75 10.125 -11 9 C-11 8.34 -11 7.68 -11 7 C-9.1015625 5.2734375 -9.1015625 5.2734375 -6.625 3.375 C-5.40683594 2.42753906 -5.40683594 2.42753906 -4.1640625 1.4609375 C-2 0 -2 0 0 0 Z " fill="#162E25" transform="translate(272,541)"/>
<path xmlns="http://www.w3.org/2000/svg" d="M0 0 C5.61 0.33 11.22 0.66 17 1 C17 1.33 17 1.66 17 2 C10.565 2.495 10.565 2.495 4 3 C3.67 3.99 3.34 4.98 3 6 C1.68 5.34 0.36 4.68 -1 4 C-0.67 2.68 -0.34 1.36 0 0 Z " fill="#19382E" transform="translate(161,440)"/>
<path xmlns="http://www.w3.org/2000/svg" d="M0 0 C2.58585205 -0.16236745 5.16151954 -0.28095486 7.75 -0.375 C8.84441406 -0.45041016 8.84441406 -0.45041016 9.9609375 -0.52734375 C12.109375 -0.5859375 12.109375 -0.5859375 16 0 C18.515625 3.0234375 18.515625 3.0234375 20 6 C19.01 6 18.02 6 17 6 C16.34 5.01 15.68 4.02 15 3 C12.40729301 2.45524022 9.99548055 2.07599851 7.375 1.8125 C6.66859375 1.73064453 5.9621875 1.64878906 5.234375 1.56445312 C3.4909317 1.36419275 1.74559914 1.18050599 0 1 C0 0.67 0 0.34 0 0 Z " fill="#0C1B15" transform="translate(169,442)"/>
<path xmlns="http://www.w3.org/2000/svg" d="M0 0 C0.66 0.33 1.32 0.66 2 1 C4.54615009 1.23172827 7.07396225 1.41894529 9.625 1.5625 C10.33140625 1.60568359 11.0378125 1.64886719 11.765625 1.69335938 C13.51018537 1.79944751 15.25506697 1.90022889 17 2 C17 2.33 17 2.66 17 3 C16.25234375 3.06058594 15.5046875 3.12117188 14.734375 3.18359375 C13.74953125 3.26738281 12.7646875 3.35117187 11.75 3.4375 C10.77546875 3.51871094 9.8009375 3.59992188 8.796875 3.68359375 C6.07279594 3.92175979 6.07279594 3.92175979 3.78125 4.59375 C1.30865724 5.15767467 0.10806629 4.27989739 -2 3 C-1.34 2.01 -0.68 1.02 0 0 Z " fill="#8D863E" transform="translate(289,378)"/>
<path xmlns="http://www.w3.org/2000/svg" d="M0 0 C2.31 0 4.62 0 7 0 C6.34 0.66 5.68 1.32 5 2 C4.34 2 3.68 2 3 2 C5.31 3.98 7.62 5.96 10 8 C9.67 8.66 9.34 9.32 9 10 C7.49410612 8.71520959 5.99542625 7.42195918 4.5 6.125 C3.6646875 5.40570313 2.829375 4.68640625 1.96875 3.9453125 C1.3190625 3.30335938 0.669375 2.66140625 0 2 C0 1.34 0 0.68 0 0 Z " fill="#0C1E17" transform="translate(218,396)"/>
<path xmlns="http://www.w3.org/2000/svg" d="M0 0 C1.98 0 3.96 0 6 0 C5.58578031 4.83256305 3.53586014 6.82679218 0 10 C0.309375 9.236875 0.61875 8.47375 0.9375 7.6875 C1.67893593 5.81210323 2.36228217 3.91315348 3 2 C2.01 2.33 1.02 2.66 0 3 C0 2.01 0 1.02 0 0 Z " fill="#11281F" transform="translate(265,396)"/>
<path xmlns="http://www.w3.org/2000/svg" d="M0 0 C-0.33 0.99 -0.66 1.98 -1 3 C-4.63 3 -8.26 3 -12 3 C-7.97869817 0.31913211 -4.73968522 -1.57989507 0 0 Z " fill="#26574A" transform="translate(216,546)"/>
<path xmlns="http://www.w3.org/2000/svg" d="M0 0 C5.80205656 5.64524422 5.80205656 5.64524422 8 9 C8 9.66 8 10.32 8 11 C6.68 11 5.36 11 4 11 C3.8453125 10.13375 3.8453125 10.13375 3.6875 9.25 C3.11076107 6.90012053 3.11076107 6.90012053 1.4375 4.9375 C0 3 0 3 0 0 Z " fill="#132D24" transform="translate(223,457)"/>
<path xmlns="http://www.w3.org/2000/svg" d="M0 0 C0.66 0.33 1.32 0.66 2 1 C-0.51407619 5.28324091 -2.12314139 7.64531705 -7 9 C-7 6 -7 6 -5.46875 4.39453125 C-4.49421875 3.61142578 -4.49421875 3.61142578 -3.5 2.8125 C-2.8503125 2.28269531 -2.200625 1.75289063 -1.53125 1.20703125 C-1.0259375 0.80871094 -0.520625 0.41039062 0 0 Z " fill="#E4B526" transform="translate(306,361)"/>
<path xmlns="http://www.w3.org/2000/svg" d="M0 0 C0.66 0 1.32 0 2 0 C2 0.66 2 1.32 2 2 C3.65 2 5.3 2 7 2 C5.875 3.5 5.875 3.5 4 5 C0.8125 5.1875 0.8125 5.1875 -2 5 C-1.125 1.125 -1.125 1.125 0 0 Z " fill="#1A3A2F" transform="translate(277,384)"/>
<path xmlns="http://www.w3.org/2000/svg" d="M0 0 C-1.26691507 0.67408308 -2.53870749 1.33900497 -3.8125 2 C-4.52019531 2.37125 -5.22789062 2.7425 -5.95703125 3.125 C-8 4 -8 4 -11 4 C-11 3.34 -11 2.68 -11 2 C-4.03571429 -1.34821429 -4.03571429 -1.34821429 0 0 Z " fill="#E0B123" transform="translate(321,375)"/>
<path xmlns="http://www.w3.org/2000/svg" d="M0 0 C-0.33 1.98 -0.66 3.96 -1 6 C-1.33 4.68 -1.66 3.36 -2 2 C-5.63 2 -9.26 2 -13 2 C-13 1.67 -13 1.34 -13 1 C-8.61414671 0.29826347 -4.44209357 -0.10834375 0 0 Z " fill="#D6B948" transform="translate(334,354)"/>
<path xmlns="http://www.w3.org/2000/svg" d="M0 0 C0.886875 0.804375 1.77375 1.60875 2.6875 2.4375 C5.38287032 4.7039159 7.42063478 5.68417366 11 6 C9.4375 7.25 9.4375 7.25 7 8 C4.42998985 6.93237266 2.3469597 5.53455057 0 4 C0 2.68 0 1.36 0 0 Z " fill="#132C23" transform="translate(311,534)"/>
<path xmlns="http://www.w3.org/2000/svg" d="M0 0 C0.66 0.33 1.32 0.66 2 1 C2.625 4.0625 2.625 4.0625 3 7 C2.34 7 1.68 7 1 7 C0.67 7.66 0.34 8.32 0 9 C-0.84454356 5.62182575 -1.10844919 3.32534757 0 0 Z " fill="#173228" transform="translate(270,507)"/>
<path xmlns="http://www.w3.org/2000/svg" d="M0 0 C2.95409701 1.37154504 5.44008376 2.98863724 8 5 C7.67 5.99 7.34 6.98 7 8 C6.34 7.67 5.68 7.34 5 7 C5 6.34 5 5.68 5 5 C4.34 5 3.68 5 3 5 C1.375 2.5 1.375 2.5 0 0 Z " fill="#0E261D" transform="translate(284,506)"/>
<path xmlns="http://www.w3.org/2000/svg" d="M0 0 C0.99 0 1.98 0 3 0 C2.52797514 4.24822374 0.03344482 6.19989709 -3 9 C-2.34 7.02 -1.68 5.04 -1 3 C-0.34 3 0.32 3 1 3 C0.67 2.01 0.34 1.02 0 0 Z " fill="#122C23" transform="translate(236,434)"/>
<path xmlns="http://www.w3.org/2000/svg" d="M0 0 C3.91211733 1.15585285 6.8745041 2.35534962 10 5 C9.67 5.66 9.34 6.32 9 7 C7.4972763 6.02501855 5.99788037 5.04490611 4.5 4.0625 C3.6646875 3.51722656 2.829375 2.97195313 1.96875 2.41015625 C1.3190625 1.94480469 0.669375 1.47945313 0 1 C0 0.67 0 0.34 0 0 Z " fill="#1B2F22" transform="translate(278,358)"/>
<path xmlns="http://www.w3.org/2000/svg" d="M0 0 C3.87132028 0.57352893 6.08172796 2.48704352 9 5 C5.8525787 5 4.71198463 4.399734 2 3 C1.34 3 0.68 3 0 3 C0 2.01 0 1.02 0 0 Z " fill="#183228" transform="translate(280,480)"/>
<path xmlns="http://www.w3.org/2000/svg" d="M0 0 C0.66 0.66 1.32 1.32 2 2 C0.47793991 4.62901288 -0.84365964 6.84365964 -3 9 C-3.75 7.3125 -3.75 7.3125 -4 5 C-2.0625 2.25 -2.0625 2.25 0 0 Z " fill="#112A20" transform="translate(247,454)"/>
<path xmlns="http://www.w3.org/2000/svg" d="M0 0 C2 1 2 1 2 1 Z " fill="#285248" transform="translate(304,498)"/>
<path xmlns="http://www.w3.org/2000/svg" d="M0 0 C2 1 2 1 2 1 Z " fill="#29564A" transform="translate(229,487)"/>
<path xmlns="http://www.w3.org/2000/svg" d="M0 0 C2 1 2 1 2 1 Z " fill="#717E4D" transform="translate(289,384)"/>
<path xmlns="http://www.w3.org/2000/svg" d="M0 0 C2 1 2 1 2 1 Z " fill="#2A5449" transform="translate(209,368)"/>
</svg>
